<svg xmlns="http://www.w3.org/2000/svg" viewBox="0 0 242.96 245.76"><defs><style>.cls-1{fill:#6e807f;}.cls-2{fill:#69164a;}.cls-3{fill:#6d807f;}.cls-4{fill:#f7c1cf;}</style></defs><g id="Capa_2" data-name="Capa 2"><g id="Capa_1-2" data-name="Capa 1"><path class="cls-1" d="M121.48,197.31a75.83,75.83,0,1,1,75.83-75.83A75.92,75.92,0,0,1,121.48,197.31Zm0-149a73.18,73.18,0,1,0,73.18,73.18A73.26,73.26,0,0,0,121.48,48.3Z"/><path class="cls-2" d="M35.54,109.5c-.68,5-4.58,9-10.63,8.18s-8.74-5.67-8.06-10.74a9.3,9.3,0,0,1,4.16-7L23.07,103a6.09,6.09,0,0,0-2.7,4.37c-.39,2.92,1.44,5.47,5.12,6s6.12-1.54,6.51-4.48-.65-3.94-.65-3.94l-2.68-.36-.51,3.81L24.93,108,26,100l7.52,1A10.77,10.77,0,0,1,35.54,109.5Z"/><path class="cls-2" d="M40.88,89.39c-2,5-6.88,7.7-12.37,5.51s-7.21-7.47-5.19-12.52,6.89-7.7,12.39-5.51S42.89,84.34,40.88,89.39ZM26.72,83.73c-1.14,2.84.06,5.8,3.31,7.09s6.17,0,7.3-2.85-.08-5.8-3.33-7.1S27.84,80.9,26.72,83.73Z"/><path class="cls-2" d="M52.53,66.13a8,8,0,0,1-1.73,4.52l-4.32,6.12L31.53,66.21l3.59-5.09a10,10,0,0,1,3.23-3.24,4.13,4.13,0,0,1,4.48.31,4.27,4.27,0,0,1,1.76,4.51l0,0c1.77-1.54,3.9-1.89,5.74-.59A4.66,4.66,0,0,1,52.53,66.13ZM39,61.76a3.27,3.27,0,0,0-1.41,1.35l-1,1.45L40,67l1-1.37a3.3,3.3,0,0,0,.84-1.87A1.94,1.94,0,0,0,40.92,62,1.81,1.81,0,0,0,39,61.76Zm6.53,3.44a3.67,3.67,0,0,0-1.72,1.57L42.46,68.7l3.82,2.69,1.36-1.93a3.73,3.73,0,0,0,.9-2.15,2.27,2.27,0,0,0-3-2.11Z"/><path class="cls-2" d="M57.67,62.24,44.58,49.46l3-3.07L60.67,59.17Z"/><path class="cls-2" d="M64.51,55.43l-11-14.59,9.46-7.14L65,36.43,59,41l2.25,3,5.71-4.31L69,42.39l-5.71,4.32,2.56,3.38,6.24-4.71,2.09,2.77Z"/><path class="cls-2" d="M86.52,41.69,80,37.07l-1.21.58,3,6.3L78,45.82,70,29.36,76,26.5a7.9,7.9,0,0,1,4.9-.93,5.09,5.09,0,0,1,3.64,2.89,5.11,5.11,0,0,1-.94,6.28L91,39.53ZM79,29.22a3.5,3.5,0,0,0-2.19.53l-1.53.73,2,4.23L78.88,34a3.52,3.52,0,0,0,1.76-1.41A2.31,2.31,0,0,0,79,29.22Z"/><path class="cls-2" d="M105.87,35.78,95.3,25.46s.56,2.13,1,4l1.83,8.07L94,38.46,90,20.63l4.47-1,10.37,10.25s-.53-2-1-3.88L102,17.9l4.09-.93,4,17.83Z"/><path class="cls-2" d="M123.94,34.84c-5.44-.16-9.6-3.8-9.43-9.71s4.54-9.34,10-9.18,9.59,3.83,9.42,9.74S129.37,35,123.94,34.84Zm.44-15.23c-3-.09-5.42,2-5.52,5.54S121,30.94,124.05,31s5.41-2.07,5.51-5.57S127.42,19.7,124.38,19.61Z"/><path class="cls-1" d="M151.1,39.66l-6.45-2.45,6.5-17.1,6.45,2.45c5.68,2.15,8.75,6.08,6.42,12.23S156.77,41.82,151.1,39.66Zm5.18-12.36L155,26.81l-3,7.81,1.29.49c2.5,1,4.13,0,5.05-2.47S158.88,28.29,156.28,27.3Z"/><path class="cls-1" d="M163.86,45.46l9.46-15.66,5.13,3.1L169,48.55Z"/><path class="cls-1" d="M179.38,57c-3.66-3.27-5.26-8.63-.94-13.48s9.82-3.85,13.58-.5a9.68,9.68,0,0,1,3.62,7.49l-5.17-.17a5.09,5.09,0,0,0-1.72-3.66c-1.58-1.41-3.88-1.33-5.82.84s-1.75,4.48-.17,5.89,2.32,1.18,2.32,1.18l.88-1-2.07-1.85,2.94-3.31,6.43,5.73-5.33,6A11.06,11.06,0,0,1,179.38,57Z"/><path class="cls-1" d="M188.27,65.72l14.42-11.25,3.69,4.72L192,70.44Z"/><path class="cls-1" d="M211,75.45,199,82l-2.9-5.24,11.91-6.59L206,66.46l4.08-2.26L217.12,77,213,79.22Z"/><path class="cls-1" d="M205.32,98.14l2.23-1.46-1.58-5-2.66.12-1.9-5.94,19.38.51,2,6.32-15.51,11.62Zm10.49-6.82-5.08.2.82,2.58Z"/><path class="cls-1" d="M207.43,107.18l18.19-1.81.59,5.93-13.31,1.33.62,6.2-4.88.48Z"/><path class="cls-3" d="M30.76,174.37,43.44,167l1.06,1.48-6.94,10.69,12.34-3.2L51,177.5l-11,9.68-.93-1.29,9.26-8-12.93,3.25-.43-.6,7.13-11-10.39,6.15Z"/><path class="cls-3" d="M60,186.57l1.19,1.06-9.77,10.91-1.18-1.06Z"/><path class="cls-3" d="M68.61,211.17c-3.74-2.2-4.82-6.36-2.53-10.25a7.26,7.26,0,0,1,10.25-2.73,7.15,7.15,0,0,1,3.48,4.41l-1.33.67a5.91,5.91,0,0,0-2.84-3.84c-3-1.74-6.29-.84-8.13,2.28a5.74,5.74,0,0,0,2,8.22,6,6,0,0,0,4.82.72l.12,1.37A7.05,7.05,0,0,1,68.61,211.17Z"/><path class="cls-3" d="M98.06,215.27,90,212.93l-2,6.78-1.53-.44,4.08-14.06,1.53.44-1.73,5.95,8.07,2.34,1.73-5.95,1.53.44-4.08,14.06-1.53-.44Z"/><path class="cls-3" d="M112.14,217.61a7.48,7.48,0,1,1,7.32,7.7A7.27,7.27,0,0,1,112.14,217.61Zm13.33.26a5.86,5.86,0,1,0-11.7-.25,5.86,5.86,0,1,0,11.7.25Z"/><path class="cls-3" d="M148.19,217.57l-6.51,1.52-.66,4.36-1.61.37,2.6-15.68,1.18-.28,9.28,12.92-1.76.41ZM143,210.12l-1.14,7.48,5.44-1.27Z"/><path class="cls-3" d="M170.68,213.42c-3.88,2-8,.63-10-3.4a7.26,7.26,0,0,1,3.23-10.1,7.18,7.18,0,0,1,5.59-.55l-.15,1.48a5.88,5.88,0,0,0-4.76.32c-3.07,1.55-4.11,4.84-2.48,8.07a5.74,5.74,0,0,0,8,2.79,6,6,0,0,0,3.21-3.67l1.23.64A7.08,7.08,0,0,1,170.68,213.42Z"/><path class="cls-3" d="M180.23,187.78l-.53-3.6,1.27-1.09.21,3.87Zm10.62,6.32-5.06,4.36,1.44,4.16L186,203.7l-5-15.08.92-.79L196.12,195l-1.36,1.17Zm-8-4.2L185.3,197l4.22-3.64Z"/><path class="cls-3" d="M196.09,176.5l4.23,2.94,5.79,4.07-.91,1.3-12-8.4,1-1.36,15-.41-9.87-6.92.9-1.29,12,8.4-.87,1.25Z"/><polygon class="cls-4" points="29.13 136.08 25.32 136.57 28.36 134.23 26.51 132.38 24.17 135.42 24.66 131.61 22.04 131.61 22.54 135.42 20.19 132.38 18.34 134.23 21.39 136.57 17.58 136.08 17.58 138.7 21.39 138.2 18.34 140.54 20.19 142.4 22.54 139.35 22.04 143.16 24.66 143.16 24.17 139.35 26.51 142.4 28.36 140.54 25.32 138.2 29.13 138.7 29.13 136.08"/><polygon class="cls-4" points="225.39 136.08 221.58 136.57 224.62 134.23 222.77 132.38 220.43 135.42 220.92 131.61 218.3 131.61 218.8 135.42 216.45 132.38 214.6 134.23 217.65 136.57 213.84 136.08 213.84 138.7 217.65 138.2 214.6 140.54 216.45 142.4 218.8 139.35 218.3 143.16 220.92 143.16 220.43 139.35 222.77 142.4 224.62 140.54 221.58 138.2 225.39 138.7 225.39 136.08"/><path class="cls-1" d="M121.48,0A121.62,121.62,0,0,0,0,121.48C0,179,40.25,227.34,94.07,239.8v-2.72a118.83,118.83,0,1,1,54.83,0v2.72A121.47,121.47,0,0,0,121.48,0Z"/><path class="cls-2" d="M110.88,244.85a4.65,4.65,0,0,1-3,.91,6,6,0,0,1-3.89-1.65l1.27-1.88a4.49,4.49,0,0,0,2.86,1.38c.82,0,1.46-.39,1.46-1.12s-.81-1-1.29-1.21-1.3-.46-1.66-.62a4.34,4.34,0,0,1-1.31-.8,2.68,2.68,0,0,1-.86-2.11,3.07,3.07,0,0,1,1.15-2.4,4.44,4.44,0,0,1,2.89-.88,5.4,5.4,0,0,1,3.48,1.36l-1.1,1.79a3.74,3.74,0,0,0-2.44-1.11c-.83,0-1.43.32-1.43,1s.61.93,1.11,1.11,1.29.48,1.63.63a4.19,4.19,0,0,1,1.53.89,2.87,2.87,0,0,1,.86,2.11A3.3,3.3,0,0,1,110.88,244.85Z"/><path class="cls-2" d="M120.07,236.65v2.69h4v2h-4v4.18h-2.55v-11h6.85v2.05Z"/><path class="cls-2" d="M136.15,245.57l-.78-2.21h-3.91l-.78,2.21H128l4.14-11h2.67l4.13,11Zm-2.73-8.16-1.37,4h2.73Z"/><path class="cls-1" d="M102.49,130.37h.08a2.24,2.24,0,0,0,2.16-2.31h0a2.25,2.25,0,0,0-.71-1.56,2.12,2.12,0,0,0-1.61-.6,2.18,2.18,0,0,0-1.7,3.52L88,141.17a2.24,2.24,0,0,0-1.43-.55h-.08a2.24,2.24,0,0,0,.07,4.47h.08a2.21,2.21,0,0,0,1.56-.71,2.14,2.14,0,0,0,.14-2.82l12.67-11.74A2.25,2.25,0,0,0,102.49,130.37Zm-.06-3.94h.07a1.64,1.64,0,0,1,1.15.46,1.69,1.69,0,0,1,.55,1.19,1.72,1.72,0,0,1-.46,1.22,1.7,1.7,0,0,1-1.19.54h-.06a1.71,1.71,0,0,1-.06-3.41Z"/><path class="cls-1" d="M130,100.16a2.23,2.23,0,0,0,1.53.6h.07a2.23,2.23,0,0,0,1.57-.71,2.26,2.26,0,0,0,.59-1.6,2.23,2.23,0,0,0-2.23-2.17h-.08a2.23,2.23,0,0,0-1.56.71,2.2,2.2,0,0,0-.52,1.11l-14.44-1a2.17,2.17,0,0,0-.7-1.52,2.2,2.2,0,0,0-1.53-.61h-.07a2.24,2.24,0,0,0-1.45,3.88,2.19,2.19,0,0,0,1.52.6h.08a2.16,2.16,0,0,0,1.56-.7,2.2,2.2,0,0,0,.52-1.11l14.44,1A2.21,2.21,0,0,0,130,100.16Zm1.47-3.34h.06a1.72,1.72,0,0,1,1.71,1.64h0a1.72,1.72,0,0,1-.46,1.22,1.67,1.67,0,0,1-1.19.54,1.71,1.71,0,1,1-.12-3.41Zm-18.71,2.09h-.06a1.68,1.68,0,0,1-1.16-.46,1.66,1.66,0,0,1-.54-1.19,1.71,1.71,0,0,1,1.64-1.77h.06a1.71,1.71,0,0,1,.06,3.42Z"/><path class="cls-1" d="M119.45,106.59h.08a2.13,2.13,0,0,0,2.09-1.82l11.19.79a4,4,0,0,1,3.06,1.84l4.33,6.36-.19.13a2.27,2.27,0,0,0-.6,1.61,2.25,2.25,0,0,0,2.24,2.16h.07a2.22,2.22,0,0,0,2.16-2.31,2.14,2.14,0,0,0-.7-1.56,2.2,2.2,0,0,0-1.53-.61h-.07a2.22,2.22,0,0,0-1,.27l-4.32-6.35a4.49,4.49,0,0,0-3.46-2.07l-11.16-.78a2.22,2.22,0,0,0-2.23-2.13h-.07a2.24,2.24,0,0,0-2.16,2.31,2.15,2.15,0,0,0,.71,1.56A2.18,2.18,0,0,0,119.45,106.59Zm22.14,7.12h.06a1.72,1.72,0,0,1,1.71,1.65h0a1.71,1.71,0,0,1-1.65,1.77h-.06a1.71,1.71,0,0,1-1.17-.46,1.74,1.74,0,0,1-.54-1.19A1.72,1.72,0,0,1,141.59,113.71Z"/><path class="cls-1" d="M95.22,103.39h.08a2.22,2.22,0,0,0,1-.27l7.49,10.93a4.47,4.47,0,0,0,3.7,1.94,4.36,4.36,0,0,0,2.42-.72l4.11-2.69a1.84,1.84,0,0,0,.17.22,2.19,2.19,0,0,0,1.52.6h.08a2.24,2.24,0,0,0,2.16-2.31h0a2.24,2.24,0,0,0-2.24-2.16h-.08a2.23,2.23,0,0,0-2.15,2.31,2.35,2.35,0,0,0,.23.91l-4.09,2.67a4,4,0,0,1-5.4-1.07l-7.49-10.94c.06,0,.13-.08.18-.13a2.23,2.23,0,0,0-.11-3.16,2.2,2.2,0,0,0-1.52-.61h-.08A2.22,2.22,0,0,0,93,101.23a2.24,2.24,0,0,0,2.23,2.16Zm20.38,6.07h.06a1.68,1.68,0,1,1-.06,0Z"/><path class="cls-1" d="M104,106.88a2.24,2.24,0,0,0,2.24,2.16h.07a2.23,2.23,0,0,0,1.57-.71,2.24,2.24,0,0,0-1.64-3.77h-.08a2.21,2.21,0,0,0-.95.26l-3-4.33a2.15,2.15,0,0,1,.32-2.77l1.35-1.26a2.24,2.24,0,0,0,1.45.56h.08a2.24,2.24,0,0,0-.08-4.48h-.08a2.24,2.24,0,0,0-2.15,2.32,2.09,2.09,0,0,0,.44,1.19l-1.37,1.28a2.68,2.68,0,0,0-.39,3.46l3,4.35A2.21,2.21,0,0,0,104,106.88Zm1.31-13.8h.06a1.68,1.68,0,1,1-.06,0Zm.87,12h.06a1.71,1.71,0,0,1,.06,3.42h-.06a1.71,1.71,0,0,1-.06-3.42Z"/><path class="cls-1" d="M126.41,94.09h.09a2.64,2.64,0,0,0,2.39-1.8l16.29,1.15a3,3,0,0,0,2.19-.71l11.85-9.88a1.74,1.74,0,0,1,1.7-.3l.77.26a1.75,1.75,0,0,1,1.17,1.56l.61,10.84a2.61,2.61,0,0,0,.79,5.1h.1a2.64,2.64,0,0,0,1.71-4.56,2.63,2.63,0,0,0-1.28-.61l-.61-10.84a3,3,0,0,0-2.06-2.74l-.76-.27a3.12,3.12,0,0,0-3,.54l-11.86,9.89a1.78,1.78,0,0,1-1.24.4L129,91a2.61,2.61,0,0,0-2.54-2.15h-.09a2.64,2.64,0,0,0,.09,5.27Zm0-3.94h0a1.31,1.31,0,0,1,0,2.61h0a1.31,1.31,0,0,1,0-2.61Z"/><path class="cls-1" d="M167.31,105.19a2.64,2.64,0,0,0-5.27.19,2.62,2.62,0,0,0,2.12,2.44l.33,6.05a1.66,1.66,0,0,1-.14.79l-.24.57a2.6,2.6,0,0,0-.47-.09,2.64,2.64,0,0,0,.09,5.27h.09a2.63,2.63,0,0,0,2.54-2.72,2.58,2.58,0,0,0-1-2l.24-.56a3.11,3.11,0,0,0,.25-1.38l-.34-6A2.61,2.61,0,0,0,167.31,105.19Zm-3.54,13.9a1.36,1.36,0,0,1-1.35-1.27,1.31,1.31,0,0,1,1.26-1.35h0a1.31,1.31,0,0,1,0,2.62Zm.95-12.5h0a1.31,1.31,0,0,1,0-2.61h0a1.31,1.31,0,0,1,0,2.61Z"/><path class="cls-1" d="M96.47,94.13h.09A2.65,2.65,0,0,0,99.1,91.4a2.59,2.59,0,0,0-.16-.68l5.83-3.67a1.76,1.76,0,0,1,2.18.25l2.81,2.86a3.15,3.15,0,0,0,2,.91l2.57.18a2.54,2.54,0,0,0,2.54,2.15h.1a2.58,2.58,0,0,0,1.83-.84,2.63,2.63,0,1,0-4.4-2.63l-2.55-.18a1.78,1.78,0,0,1-1.12-.52l-2.81-2.86a3.1,3.1,0,0,0-3.84-.44l-5.79,3.64h0a2.55,2.55,0,0,0-1.89-.71,2.61,2.61,0,0,0-1.84.83,2.64,2.64,0,0,0,1.93,4.44Zm-1-3.53a1.28,1.28,0,0,1,.92-.42h0a1.33,1.33,0,0,1,.89.35,1.28,1.28,0,0,1,.42.92,1.32,1.32,0,0,1-1.27,1.35,1.35,1.35,0,0,1-1.35-1.26A1.3,1.3,0,0,1,95.51,90.6Z"/><path class="cls-1" d="M78.78,142.67h.09a2.57,2.57,0,0,0,2.21-3.86l7.13-6.63a2.58,2.58,0,0,0,1.38.45h.09a2.64,2.64,0,0,0-.09-5.27H89.5a2.6,2.6,0,0,0-2.21,3.87l-7.12,6.62a2.47,2.47,0,0,0-1.48-.44,2.63,2.63,0,0,0,.09,5.26Zm10.77-14h0a1.31,1.31,0,0,1,0,2.62h0a1.31,1.31,0,0,1,0-2.62ZM77.82,139.15a1.32,1.32,0,0,1,.92-.42h.05a1.3,1.3,0,0,1,.89.35,1.33,1.33,0,0,1,.41.92,1.27,1.27,0,0,1-.35.94,1.31,1.31,0,0,1-.91.41,1.38,1.38,0,0,1-1.36-1.27A1.33,1.33,0,0,1,77.82,139.15Z"/><path class="cls-1" d="M85.06,154.78a2.63,2.63,0,0,0-2.39,1.8l-2.2-.14a1.77,1.77,0,0,1-1-.44l-7.17-6.37a1.7,1.7,0,0,1-.16-2.42,2.53,2.53,0,0,0,1.35.42h.09a2.62,2.62,0,0,0,2.54-2.72,2.59,2.59,0,0,0-.83-1.83,2.72,2.72,0,0,0-1.89-.71,2.64,2.64,0,0,0-2.55,2.72,2.6,2.6,0,0,0,.37,1.18,3,3,0,0,0,.2,4.35L78.55,157a3.07,3.07,0,0,0,1.84.77l2.22.15a2.62,2.62,0,0,0,2.55,2.14h.09a2.64,2.64,0,1,0-.19-5.27ZM72.49,144.11a1.28,1.28,0,0,1,.91-.42h0a1.28,1.28,0,0,1,.89.35,1.34,1.34,0,0,1,.42.92,1.32,1.32,0,0,1-1.27,1.35h0A1.31,1.31,0,0,1,72.14,145,1.23,1.23,0,0,1,72.49,144.11ZM85.2,158.72h0a1.31,1.31,0,0,1,0-2.62h0a1.31,1.31,0,0,1,0,2.62Z"/><path class="cls-1" d="M122.59,150a2.61,2.61,0,0,0-1.83.83,2.66,2.66,0,0,0-.71,1.89,2.6,2.6,0,0,0,.84,1.84,2.52,2.52,0,0,0,.44.28l-.86,2.87a1.76,1.76,0,0,1-1.79,1.25l-23-1.51A2.61,2.61,0,0,0,95,156a2.64,2.64,0,0,0-4.44,2,2.68,2.68,0,0,0,.84,1.84,2.59,2.59,0,0,0,1.79.71h.1a2.61,2.61,0,0,0,2.39-1.8l23,1.51h.21a3,3,0,0,0,2.94-2.19l.85-2.84.09,0h.09a2.61,2.61,0,0,0,1.84-.83,2.66,2.66,0,0,0,.71-1.89,2.62,2.62,0,0,0-.84-1.83A2.51,2.51,0,0,0,122.59,150Zm1,3.53a1.31,1.31,0,0,1-.91.41,1.32,1.32,0,0,1-.94-.35,1.27,1.27,0,0,1-.41-.92,1.23,1.23,0,0,1,.35-.93,1.28,1.28,0,0,1,.91-.42h0a1.35,1.35,0,0,1,.9.35,1.33,1.33,0,0,1,.41.92A1.27,1.27,0,0,1,123.64,153.52Z"/><path class="cls-1" d="M140.28,133.29a2.59,2.59,0,0,0-2.46,2.24l-9,1a3,3,0,0,0-2.62,2.18l-1.08,3.6a1.13,1.13,0,0,0-.18,0,2.64,2.64,0,0,0,.08,5.27h.1a2.64,2.64,0,0,0,2.54-2.73,2.61,2.61,0,0,0-.83-1.83,2.39,2.39,0,0,0-.45-.28l1.08-3.62a1.75,1.75,0,0,1,1.5-1.24l9-1a2.63,2.63,0,0,0,2.44,1.71h.09a2.64,2.64,0,0,0,2.54-2.73A2.68,2.68,0,0,0,140.28,133.29ZM126,145.78a1.31,1.31,0,0,1-.92.41,1.48,1.48,0,0,1-.93-.35A1.31,1.31,0,0,1,124,144a1.3,1.3,0,0,1,.92-.42h0a1.29,1.29,0,0,1,.89.36,1.26,1.26,0,0,1,.42.91A1.36,1.36,0,0,1,126,145.78Zm14.45-8.55h0a1.31,1.31,0,0,1,0-2.62h0a1.31,1.31,0,0,1,0,2.62Z"/><path class="cls-1" d="M102,154.71a2.23,2.23,0,0,0,1,.23,2.1,2.1,0,0,0,.74-.13,2.19,2.19,0,0,0,1.42-1.68l8.93.58h.18a2.67,2.67,0,0,0,2.56-1.91l1-3.17a2.2,2.2,0,0,0,.37.06,2.34,2.34,0,0,0,.74-.12,2.24,2.24,0,0,0-1.47-4.23A2.23,2.23,0,0,0,116,147.2a2.21,2.21,0,0,0,1.23,1.29l-1,3.17a2.17,2.17,0,0,1-2.2,1.52l-8.92-.58a2.34,2.34,0,0,0-.08-.64,2.23,2.23,0,0,0-1.14-1.27,2.17,2.17,0,0,0-1.71-.1,2.23,2.23,0,0,0-.24,4.12ZM116.49,147a1.71,1.71,0,0,1,1.05-2.17,1.58,1.58,0,0,1,.56-.1,1.71,1.71,0,1,1-1.61,2.27ZM101.42,152a1.68,1.68,0,0,1,1-.86,1.62,1.62,0,0,1,.56-.1,1.79,1.79,0,0,1,.75.17,1.71,1.71,0,0,1-.19,3.15,1.68,1.68,0,0,1-1.3-.07,1.71,1.71,0,0,1-.79-2.29Z"/><path class="cls-1" d="M122.82,136.19a2.21,2.21,0,0,0,1.28.41,2.56,2.56,0,0,0,.39,0,2.26,2.26,0,1,0-2.58-1.93l-9.1,2.27a2.66,2.66,0,0,0-2,2.19l-.62,4.06a2.36,2.36,0,0,0-.46,0,2.24,2.24,0,0,0,.39,4.45,2.58,2.58,0,0,0,.38,0,2.24,2.24,0,0,0,1.82-2.58,2.22,2.22,0,0,0-1.61-1.76l.62-4a2.18,2.18,0,0,1,1.61-1.76l9.12-2.27A2.19,2.19,0,0,0,122.82,136.19Zm-.11-2.81a1.72,1.72,0,0,1,1.11-.7,1.36,1.36,0,0,1,.29,0,1.71,1.71,0,0,1,1.68,1.42,1.67,1.67,0,0,1-.29,1.28,1.69,1.69,0,0,1-2.37.41,1.65,1.65,0,0,1-.7-1.11A1.69,1.69,0,0,1,122.71,133.38ZM111.8,145.06h0a1.73,1.73,0,0,1-.29,1.27,1.69,1.69,0,0,1-1.1.7,1.72,1.72,0,0,1-2-1.39,1.68,1.68,0,0,1,.29-1.28,1.7,1.7,0,0,1,1.1-.7l.29,0A1.72,1.72,0,0,1,111.8,145.06Z"/><polygon class="cls-1" points="126.31 133.98 126.31 133.98 126.31 133.98 126.31 133.98"/><path class="cls-1" d="M151.87,126.13a2.25,2.25,0,0,0-1.56.71,2.21,2.21,0,0,0-.58,1.5l-15.91,1.71a2.27,2.27,0,0,0-.61-1.14,2.23,2.23,0,0,0-1.53-.6h-.08a2.24,2.24,0,0,0-2.16,2.31,2.25,2.25,0,0,0,.71,1.56,2.23,2.23,0,0,0,1.52.6h.08a2.22,2.22,0,0,0,2.15-2.21l15.91-1.7a2.13,2.13,0,0,0,2.13,1.74H152a2.16,2.16,0,0,0,1.56-.7,2.22,2.22,0,0,0,.6-1.6,2.19,2.19,0,0,0-.71-1.56,2.16,2.16,0,0,0-1.52-.61Zm-20.14,6.12a1.71,1.71,0,0,1-1.3-2.87,1.68,1.68,0,0,1,1.19-.54h.06a1.67,1.67,0,0,1,1.16.46,1.69,1.69,0,0,1,.55,1.19A1.71,1.71,0,0,1,131.73,132.25Zm21.92-3.94a1.72,1.72,0,0,1-1.65,1.77h-.06a1.71,1.71,0,0,1-1.7-1.65,1.66,1.66,0,0,1,.46-1.22,1.69,1.69,0,0,1,1.19-.55H152a1.73,1.73,0,0,1,1.16.46A1.66,1.66,0,0,1,153.65,128.31Z"/><path class="cls-1" d="M158.91,92.08a2.24,2.24,0,0,0,2.16-2.31,2.24,2.24,0,0,0-2.23-2.16h-.08a2.24,2.24,0,0,0-1.45,3.87l.06,0-3.9,5.75A2.13,2.13,0,0,1,152,98L142,98.17a2.21,2.21,0,0,0-2.17-1.9h-.08a2.24,2.24,0,0,0-2.16,2.31,2.24,2.24,0,0,0,2.24,2.16h.08a2.22,2.22,0,0,0,2.11-2l10.05-.2a2.65,2.65,0,0,0,1.83-.89l3.94-5.8a2.25,2.25,0,0,0,1,.28Zm-1.78-2.18a1.67,1.67,0,0,1,.45-1.22,1.76,1.76,0,0,1,1.2-.54h.06a1.71,1.71,0,0,1,1.7,1.65,1.72,1.72,0,0,1-1.65,1.77h-.06A1.71,1.71,0,0,1,157.13,89.9Z"/><path class="cls-1" d="M157.82,102.59h0a2.21,2.21,0,0,0-4.31.88l-6.81,1.45a2.24,2.24,0,0,0-4.25,1.41,2.25,2.25,0,0,0,2.13,1.54,2.07,2.07,0,0,0,.69-.11,2.2,2.2,0,0,0,1.3-1.11,2.11,2.11,0,0,0,.2-1.21l6.81-1.45a2.21,2.21,0,0,0,1.1,1.28,2.25,2.25,0,0,0,1,.25,2,2,0,0,0,.69-.12A2.22,2.22,0,0,0,157.82,102.59Zm-12.71,4.67a1.8,1.8,0,0,1-1.31-.1,1.73,1.73,0,0,1-.84-1,1.7,1.7,0,0,1,1.1-2.15,1.57,1.57,0,0,1,.52-.08,1.71,1.71,0,0,1,.53,3.33Zm11.11-2.36a1.7,1.7,0,0,1-2.15-1.1,1.71,1.71,0,0,1,1.1-2.15,1.88,1.88,0,0,1,.52-.08,1.71,1.71,0,0,1,.53,3.33Z"/><path class="cls-1" d="M160.84,126.12a2.09,2.09,0,0,0,.36.07h.09a2.64,2.64,0,0,0-.1-5.27h-.08a2.65,2.65,0,0,0-2.55,2.73,2.59,2.59,0,0,0,1.05,2L159,127a3.1,3.1,0,0,0,.54,3.28l2.29,2.55a1.75,1.75,0,0,1-2,2.75L156.48,134a3.09,3.09,0,0,0-1.64-.28l-4.57.48a2.61,2.61,0,0,0-2.53-1.72,2.64,2.64,0,0,0,.09,5.27h.09a2.59,2.59,0,0,0,2.46-2.23L155,135a1.6,1.6,0,0,1,.94.16l3.34,1.57a3,3,0,0,0,1.3.29,3.07,3.07,0,0,0,2.3-5.13l-2.3-2.55a1.77,1.77,0,0,1-.3-1.87Zm.31-3.87h0a1.31,1.31,0,0,1,0,2.62h0a1.31,1.31,0,0,1,0-2.62Z"/><path class="cls-1" d="M97,122.19a2.76,2.76,0,0,0-1.45-.46,2.65,2.65,0,0,0-1.84.83A2.64,2.64,0,0,0,95.66,127h.09a2.65,2.65,0,0,0,2.55-2.73,2.54,2.54,0,0,0-.35-1.13l1.11-1a3.07,3.07,0,0,0,.45-4l-5.6-8.28a2.62,2.62,0,1,0-2,.9H92a2.41,2.41,0,0,0,.76-.18l5.61,8.3a1.73,1.73,0,0,1-.26,2.26Zm-5-12.76h0a1.31,1.31,0,0,1,0-2.62h0a1.31,1.31,0,0,1,0,2.62Z"/><path class="cls-1" d="M78,106.36a3.1,3.1,0,0,0,3,2.32h0a2.63,2.63,0,0,0,2.44,1.69h.09a2.61,2.61,0,0,0,1.83-.83,2.66,2.66,0,0,0,.71-1.89,2.61,2.61,0,0,0-.83-1.84,2.71,2.71,0,0,0-1.89-.71,2.62,2.62,0,0,0-1.84.84,2.65,2.65,0,0,0-.63,1.39A1.79,1.79,0,0,1,79.28,106L79,104.77a1.74,1.74,0,0,1,.77-1.91l8.07-5.09h0a2.61,2.61,0,0,0,1.79.71h.1a2.64,2.64,0,0,0,2.54-2.73,2.7,2.7,0,0,0-2.72-2.54A2.65,2.65,0,0,0,87,95.93a2.58,2.58,0,0,0,.17.69L79,101.74a3.07,3.07,0,0,0-1.34,3.36ZM89.56,94.54h0a1.31,1.31,0,0,1,0,2.61,1.42,1.42,0,0,1-.93-.35,1.28,1.28,0,0,1-.42-.91A1.31,1.31,0,0,1,89.56,94.54Z"/><path class="cls-1" d="M155,113.26h.1a2.24,2.24,0,0,0,2.16-2.31,2.25,2.25,0,0,0-2.23-2.17h-.08a2.29,2.29,0,0,0-1.56.71,2.19,2.19,0,0,0,1.09,3.67l-.57,4.27a3.92,3.92,0,0,1-3.5,3.6L130.57,123a2.16,2.16,0,0,0-.62-1.16,2.19,2.19,0,0,0-1.52-.6h-.08a2.24,2.24,0,0,0,.08,4.48h.07a2.2,2.2,0,0,0,2.14-2.18l19.8-1.92a4.47,4.47,0,0,0,4-4.07Zm-26.48,11.88h-.06a1.71,1.71,0,0,1-.06-3.42h.06a1.71,1.71,0,0,1,.06,3.42Z"/><path class="cls-1" d="M109.23,121.11a2.19,2.19,0,0,0-.65-1.3,2.06,2.06,0,0,0-1.6-.6,2.24,2.24,0,0,0-1.46,3.87,2.23,2.23,0,0,0,1.53.6h.08a2.21,2.21,0,0,0,2.11-2.05l7-.23a4.46,4.46,0,0,0,2.41-.81l8.33-5.84a2.18,2.18,0,0,0,1.64.76h.08a2.24,2.24,0,0,0,1.45-3.87,2.05,2.05,0,0,0-1.6-.6,2.24,2.24,0,0,0-2.17,2.31,2.29,2.29,0,0,0,.29,1l-8.33,5.84a3.93,3.93,0,0,1-2.12.71Zm-.93,1.5a1.74,1.74,0,0,1-1.19.54h-.06a1.71,1.71,0,0,1-.06-3.41h.07a1.72,1.72,0,0,1,1.16.45,1.76,1.76,0,0,1,.54,1.19A1.73,1.73,0,0,1,108.3,122.61Zm20.28-11h.07a1.68,1.68,0,0,1,1.16.46,1.7,1.7,0,0,1,.08,2.41,1.68,1.68,0,0,1-1.19.54h-.06a1.71,1.71,0,0,1-.06-3.41Z"/><path class="cls-1" d="M113.6,128.92l4.12-.14a2.22,2.22,0,0,0,2.17,1.91H120a2.24,2.24,0,0,0-.07-4.47h-.08a2.21,2.21,0,0,0-1.56.71,2.27,2.27,0,0,0-.56,1.34l-4.12.13a4.54,4.54,0,0,0-2.88,1.19L97.58,141.75a2.17,2.17,0,0,0-1.44-.55h-.07a2.24,2.24,0,0,0,.08,4.48h.07a2.25,2.25,0,0,0,2.16-2.31,2.18,2.18,0,0,0-.46-1.22L111.06,130A4,4,0,0,1,113.6,128.92ZM96.2,145.15h-.06a1.71,1.71,0,0,1-.06-3.42h.06a1.71,1.71,0,0,1,.06,3.42Z"/><path class="cls-1" d="M93,152.22a2.26,2.26,0,0,0,2.1,1.46,2.33,2.33,0,0,0,.73-.12,2.28,2.28,0,1,0-2.92-1.87l-2.48.6a2.2,2.2,0,0,1-1.39-.13l-6.75-3.07a2.1,2.1,0,0,0,0-1.4,2.24,2.24,0,0,0-4.23,1.47,2.21,2.21,0,0,0,1.14,1.28,2.24,2.24,0,0,0,1,.23,2.08,2.08,0,0,0,.73-.13,2.19,2.19,0,0,0,1.15-1l6.74,3.06a2.67,2.67,0,0,0,1.11.24,3.18,3.18,0,0,0,.62-.07Zm.56-1.52a1.68,1.68,0,0,1,1-.87,1.76,1.76,0,0,1,.55-.09A1.71,1.71,0,1,1,93.47,152,1.68,1.68,0,0,1,93.55,150.7ZM80.75,150a1.7,1.7,0,0,1-1.31-.07,1.66,1.66,0,0,1-.86-1,1.7,1.7,0,0,1,.07-1.31,1.66,1.66,0,0,1,1-.86,1.54,1.54,0,0,1,.56-.1,1.71,1.71,0,0,1,.56,3.32Z"/></g></g></svg>