<svg xmlns="http://www.w3.org/2000/svg" viewBox="0 0 171.93 161.52"><defs><style>.cls-1{fill:#69164a;}.cls-2{fill:#6d807f;}.cls-3{fill:#6e807f;}</style></defs><g id="Capa_2" data-name="Capa 2"><g id="Capa_1-2" data-name="Capa 1"><path class="cls-1" d="M11.41,114.63c-6.07,0-11.41-4-11.41-11.32S5.34,92,11.47,92c5.82,0,8.33,3,9,3.81l-3.4,3a7.26,7.26,0,0,0-5.63-2.51c-3.52,0-6.26,2.58-6.26,7s2.8,7,6.36,7,4.58-1.4,4.58-1.4V105.7H11.54v-3.91h9.63v9.09C20.06,111.87,17.45,114.63,11.41,114.63Z"/><path class="cls-1" d="M36.25,114.66c-6.51,0-11.63-4.22-11.63-11.31S29.74,92,36.25,92s11.64,4.26,11.64,11.35S42.77,114.66,36.25,114.66Zm0-18.27c-3.65,0-6.42,2.63-6.42,6.83s2.77,6.87,6.42,6.87,6.42-2.68,6.42-6.87S39.91,96.39,36.25,96.39Z"/><path class="cls-1" d="M67,112.85a9.54,9.54,0,0,1-5.63,1.43h-9V92.35h7.48a12.06,12.06,0,0,1,5.4.92,5,5,0,0,1,2.8,4.61,5.11,5.11,0,0,1-3.21,4.83v.06c2.73.67,4.54,2.51,4.54,5.22A5.58,5.58,0,0,1,67,112.85ZM61.92,96.61a3.82,3.82,0,0,0-2.29-.45H57.5v5.06h2a4,4,0,0,0,2.42-.48A2.34,2.34,0,0,0,63,98.64,2.17,2.17,0,0,0,61.92,96.61Zm1.14,8.77a4.42,4.42,0,0,0-2.73-.6H57.5v5.59h2.83a4.42,4.42,0,0,0,2.73-.6,2.71,2.71,0,0,0,0-4.39Z"/><path class="cls-1" d="M73.63,114.28V92.35h5.15v21.93Z"/><path class="cls-1" d="M84.38,114.28V92.35H98.59v4.1H89.5v4.48h8.58V105H89.5v5.09h9.38v4.16Z"/><path class="cls-1" d="M115,114.28l-4.61-8.39h-1.62v8.39h-5.15V92.35h7.88a9.49,9.49,0,0,1,5.79,1.56,6.06,6.06,0,0,1,2.41,5,6.13,6.13,0,0,1-4.29,6.29l5.56,9.06Zm-1.59-17.39a4.29,4.29,0,0,0-2.64-.57h-2V102h2a4.21,4.21,0,0,0,2.64-.61,2.46,2.46,0,0,0,1.11-2.22A2.52,2.52,0,0,0,113.45,96.89Z"/><path class="cls-1" d="M138.89,114.28,129.26,99.4s.09,2.64.09,5v9.92h-5V92.35h5.5l9.41,14.75s-.1-2.48-.1-4.8v-10h5v21.93Z"/><path class="cls-1" d="M160.3,114.66c-6.52,0-11.64-4.22-11.64-11.31S153.78,92,160.3,92s11.63,4.26,11.63,11.35S166.81,114.66,160.3,114.66Zm0-18.27c-3.66,0-6.42,2.63-6.42,6.83s2.76,6.87,6.42,6.87,6.42-2.68,6.42-6.87S164,96.39,160.3,96.39Z"/><path class="cls-2" d="M43.74,161.36l.87-9.16h1.14l2.9,7.45,2.89-7.45h1.21l.87,9.16h-1l-.69-7.64-3.08,7.76h-.47l-3-7.66-.68,7.54Z"/><path class="cls-2" d="M56.4,152.2h1v9.16h-1Z"/><path class="cls-2" d="M64.59,161.52A4.45,4.45,0,0,1,60,156.79a4.54,4.54,0,0,1,4.66-4.72,4.5,4.5,0,0,1,3.27,1.27l-.5.79A3.67,3.67,0,0,0,64.66,153a3.81,3.81,0,0,0,0,7.61,3.73,3.73,0,0,0,2.82-1.14l.5.71A4.43,4.43,0,0,1,64.59,161.52Z"/><path class="cls-2" d="M76.65,156.94H71.4v4.42h-1V152.2h1v3.88h5.25V152.2h1v9.16h-1Z"/><path class="cls-2" d="M80.25,156.79a4.68,4.68,0,1,1,4.68,4.73A4.55,4.55,0,0,1,80.25,156.79Zm8.34,0a3.66,3.66,0,1,0-3.66,3.83A3.59,3.59,0,0,0,88.59,156.78Z"/><path class="cls-2" d="M97.15,158.8H93l-1,2.56h-1l3.81-9.18h.75l3.82,9.18H98.17Zm-2.08-5.27-1.75,4.39h3.49Z"/><path class="cls-2" d="M105.22,161.52a4.44,4.44,0,0,1-4.61-4.73,4.71,4.71,0,0,1,7.93-3.45l-.5.79a3.71,3.71,0,0,0-2.75-1.17,3.81,3.81,0,0,0,0,7.61,3.71,3.71,0,0,0,2.82-1.14l.51.71A4.45,4.45,0,0,1,105.22,161.52Z"/><path class="cls-2" d="M116.32,158.8h-4.18l-1,2.56h-1l3.81-9.18h.75l3.82,9.18h-1.12Zm-2.09-5.27-1.75,4.39H116Zm-.37-2.07,1.22-1.92h1l-1.49,1.92Z"/><path class="cls-2" d="M121.55,153.7c0,.67,0,2,0,3.23v4.43h-1V152.2h1l5.61,7.55V152.2h1v9.16h-1Z"/><path class="cls-3" d="M29.46,144.41H21.2V122.47h8.26c7.28,0,12.4,3.08,12.4,11S36.74,144.41,29.46,144.41ZM30,128.35H28.35v10H30c3.21,0,4.61-1.81,4.61-4.93S33.34,128.35,30,128.35Z"/><path class="cls-3" d="M45.69,144.41V122.47h7.18v21.94Z"/><path class="cls-3" d="M68.3,144.76c-5.88,0-11.61-3.53-11.61-11.32s5.73-11.29,11.77-11.29S77,125.33,77.67,126l-4.76,4A6.11,6.11,0,0,0,68.46,128c-2.55,0-4.55,1.91-4.55,5.41s2,5.4,4.55,5.4,3-.79,3-.79v-1.59H68.14v-5.31H78.47v9.6A13.26,13.26,0,0,1,68.3,144.76Z"/><path class="cls-3" d="M82.62,144.41V122.47H89.8v21.94Z"/><path class="cls-3" d="M105.32,128.07v16.34H98.14V128.07H93v-5.6H110.5v5.6Z"/><path class="cls-3" d="M125.45,144.41l-.86-3.09h-6.26l-.83,3.09H110l7.63-21.94h8l7.63,21.94Zm-4-14.47-1.62,5.88h3.24Z"/><path class="cls-3" d="M136.11,144.41V122.47h7.15v16.06h7.48v5.88Z"/><path class="cls-3" d="M69.5,49.25h.07a2.19,2.19,0,0,0,1.56-.71,2.22,2.22,0,0,0,.6-1.6,2.24,2.24,0,0,0-2.23-2.17h-.08a2.27,2.27,0,0,0-1.56.71,2.23,2.23,0,0,0-.6,1.61,2.17,2.17,0,0,0,.46,1.21L55,60.05a2.21,2.21,0,0,0-1.43-.55h-.08A2.24,2.24,0,0,0,53.61,64h.08a2.27,2.27,0,0,0,1.56-.71,2.23,2.23,0,0,0,.6-1.61,2.17,2.17,0,0,0-.46-1.21L68.07,48.7A2.21,2.21,0,0,0,69.5,49.25Zm-.06-4h.06A1.72,1.72,0,0,1,71.21,47h0a1.71,1.71,0,0,1-1.65,1.77H69.5a1.69,1.69,0,0,1-1.17-.46,1.74,1.74,0,0,1-.54-1.19A1.72,1.72,0,0,1,69.44,45.3Z"/><path class="cls-3" d="M97,19a2.23,2.23,0,0,0,1.52.6h.08a2.24,2.24,0,0,0,2.16-2.31,2.18,2.18,0,0,0-.7-1.56,2.24,2.24,0,0,0-1.53-.61h-.08a2.2,2.2,0,0,0-1.56.7A2.28,2.28,0,0,0,96.39,17L82,16a2.24,2.24,0,0,0-2.23-2.13h-.07a2.24,2.24,0,0,0-2.16,2.31,2.25,2.25,0,0,0,2.23,2.17h.08a2.21,2.21,0,0,0,2.08-1.82l14.44,1A2.21,2.21,0,0,0,97,19Zm.28-2.8a1.69,1.69,0,0,1,1.19-.55h.06a1.71,1.71,0,0,1,0,3.42h-.06a1.68,1.68,0,0,1-1.16-.46,1.74,1.74,0,0,1-.54-1.19A1.71,1.71,0,0,1,97.3,16.24ZM79.78,17.78A1.72,1.72,0,0,1,78,16.14a1.7,1.7,0,0,1,1.64-1.77h.06a1.71,1.71,0,0,1,.06,3.41Z"/><path class="cls-3" d="M86.47,25.47h.07a2.13,2.13,0,0,0,2.09-1.82l11.19.78a4,4,0,0,1,3.06,1.84l4.33,6.37a2.14,2.14,0,0,0-.19.13,2.24,2.24,0,0,0,1.63,3.77h.08a2.22,2.22,0,0,0,2.16-2.31,2.17,2.17,0,0,0-.71-1.56,2.12,2.12,0,0,0-1.59-.6,2.22,2.22,0,0,0-1,.27L103.32,26a4.45,4.45,0,0,0-3.46-2.08L88.7,23.12A2.24,2.24,0,0,0,86.47,21h-.08a2.23,2.23,0,0,0-2.15,2.31,2.2,2.2,0,0,0,.7,1.56A2.23,2.23,0,0,0,86.47,25.47Zm22.13,7.12h.07a1.68,1.68,0,0,1,1.16.46,1.72,1.72,0,0,1,.54,1.19h0a1.71,1.71,0,0,1-.46,1.22,1.72,1.72,0,0,1-2.41.09,1.71,1.71,0,0,1-.55-1.19,1.71,1.71,0,0,1,1.65-1.77Z"/><path class="cls-3" d="M62.23,22.27h.08a2.22,2.22,0,0,0,.95-.27l7.48,10.93a4.49,4.49,0,0,0,3.71,1.93,4.38,4.38,0,0,0,2.42-.72L81,31.46a2.21,2.21,0,0,0,1.69.82h.08A2.24,2.24,0,0,0,84.91,30h0a2.25,2.25,0,0,0-2.24-2.17H82.6a2.24,2.24,0,0,0-2.16,2.31,2.31,2.31,0,0,0,.23.91L76.58,33.7a4,4,0,0,1-5.4-1.07L63.69,21.69c.06-.05.13-.08.18-.13a2.24,2.24,0,0,0-1.63-3.77h-.08A2.25,2.25,0,0,0,60,20.1a2.25,2.25,0,0,0,2.23,2.17Zm20.38,6.07h.06a1.71,1.71,0,0,1,.06,3.41h-.06a1.71,1.71,0,0,1-.06-3.41Z"/><path class="cls-3" d="M71,25.76a2.25,2.25,0,0,0,2.24,2.16h.08A2.24,2.24,0,0,0,74.75,24a2.23,2.23,0,0,0-1.53-.6h-.08a2.22,2.22,0,0,0-1,.27l-3-4.33a2.14,2.14,0,0,1,.32-2.77l1.35-1.27a2.25,2.25,0,0,0,1.45.57h.08a2.24,2.24,0,0,0,2.16-2.31A2.21,2.21,0,0,0,73.88,12a2.23,2.23,0,0,0-1.53-.6h-.07a2.23,2.23,0,0,0-2.16,2.31,2.12,2.12,0,0,0,.44,1.2l-1.37,1.28a2.67,2.67,0,0,0-.4,3.46l3,4.34A2.22,2.22,0,0,0,71,25.76ZM72.29,12h.06a1.71,1.71,0,0,1,.06,3.42h-.06A1.71,1.71,0,0,1,72.29,12Zm.87,12h.06a1.68,1.68,0,1,1-.06,0Z"/><path class="cls-3" d="M93.42,13h.09a2.64,2.64,0,0,0,2.39-1.8l16.29,1.15a3.14,3.14,0,0,0,2.19-.71l11.86-9.88a1.77,1.77,0,0,1,1.69-.31l.77.27a1.74,1.74,0,0,1,1.17,1.55l.61,10.85a2.61,2.61,0,0,0,.79,5.1h.1a2.64,2.64,0,0,0,1.71-4.56A2.55,2.55,0,0,0,131.8,14l-.61-10.85A3.06,3.06,0,0,0,129.13.44l-.76-.27a3.09,3.09,0,0,0-3,.54l-11.86,9.88a1.82,1.82,0,0,1-1.24.41L96,9.85a2.6,2.6,0,0,0-.74-1.44,2.57,2.57,0,0,0-1.89-.71A2.64,2.64,0,0,0,93.42,13Zm-1-3.53A1.28,1.28,0,0,1,93.37,9h0a1.28,1.28,0,0,1,.89.35,1.34,1.34,0,0,1,.42.92,1.32,1.32,0,0,1-1.27,1.35h0a1.31,1.31,0,0,1-1.31-1.27A1.23,1.23,0,0,1,92.46,9.44Z"/><path class="cls-3" d="M134.32,24.07a2.61,2.61,0,0,0-.83-1.83,2.74,2.74,0,0,0-1.89-.71,2.65,2.65,0,0,0-2.55,2.72,2.6,2.6,0,0,0,2.11,2.44l.34,6.06a1.68,1.68,0,0,1-.14.79l-.24.56a3.85,3.85,0,0,0-.47-.08,2.64,2.64,0,0,0,.09,5.27h.09a2.6,2.6,0,0,0,1.51-4.68l.24-.55a3.18,3.18,0,0,0,.25-1.39l-.34-6A2.6,2.6,0,0,0,134.32,24.07ZM130.78,38h0a1.31,1.31,0,0,1-1.31-1.27,1.27,1.27,0,0,1,.35-.94,1.31,1.31,0,0,1,.91-.41h.05a1.31,1.31,0,0,1,0,2.62Zm.95-12.5h0a1.31,1.31,0,0,1-1.31-1.27,1.31,1.31,0,0,1,1.27-1.35h0a1.26,1.26,0,0,1,.89.35,1.31,1.31,0,0,1-.85,2.27Z"/><path class="cls-3" d="M63.48,13h.09a2.61,2.61,0,0,0,1.83-.83,2.66,2.66,0,0,0,.71-1.89A2.77,2.77,0,0,0,66,9.59l5.83-3.66A1.74,1.74,0,0,1,74,6.18L76.77,9a3,3,0,0,0,2,.91l2.57.18a2.54,2.54,0,0,0,2.54,2.16H84A2.64,2.64,0,1,0,81.39,8.8l-2.55-.18a1.73,1.73,0,0,1-1.12-.52L74.91,5.25a3.1,3.1,0,0,0-3.84-.45L65.28,8.45h0a2.72,2.72,0,0,0-1.89-.71A2.64,2.64,0,0,0,63.48,13Zm0-3.94h0a1.31,1.31,0,0,1,1.31,1.26,1.3,1.3,0,0,1-.36.94,1.26,1.26,0,0,1-.91.42h0a1.31,1.31,0,0,1,0-2.62Z"/><path class="cls-3" d="M45.79,61.55h.09a2.64,2.64,0,0,0,2.55-2.72,2.79,2.79,0,0,0-.33-1.15l7.12-6.62a2.58,2.58,0,0,0,1.38.45h.09a2.64,2.64,0,0,0-.09-5.27h-.09A2.63,2.63,0,0,0,54,49a2.44,2.44,0,0,0,.33,1.14l-7.13,6.63a2.61,2.61,0,1,0-1.38,4.82Zm10.77-14h0a1.31,1.31,0,0,1,0,2.62h0a1.31,1.31,0,0,1,0-2.62Zm-10.81,10h0a1.31,1.31,0,0,1,.05,2.62h-.05a1.31,1.31,0,0,1,0-2.62Z"/><path class="cls-3" d="M52.07,73.65a2.62,2.62,0,0,0-1.83.84,2.57,2.57,0,0,0-.56,1l-2.19-.14a1.86,1.86,0,0,1-1.06-.44L39.27,68.5a1.72,1.72,0,0,1-.59-1.29,1.77,1.77,0,0,1,.43-1.12,2.62,2.62,0,0,0,1.34.42h.1a2.63,2.63,0,0,0,2.54-2.72,2.64,2.64,0,1,0-5.27.18,2.6,2.6,0,0,0,.37,1.18,3,3,0,0,0,.2,4.34l7.16,6.38a3.16,3.16,0,0,0,1.85.77l2.23.14a2.54,2.54,0,0,0,.74,1.43,2.59,2.59,0,0,0,1.79.71h.1a2.64,2.64,0,0,0-.19-5.27ZM40.41,62.57h.05a1.28,1.28,0,0,1,.89.35,1.27,1.27,0,0,1,.41.91,1.29,1.29,0,0,1-.34.94,1.32,1.32,0,0,1-.92.42h0a1.31,1.31,0,0,1,0-2.62Zm11.8,15a1.56,1.56,0,0,1-.94-.35,1.29,1.29,0,0,1-.41-.92,1.27,1.27,0,0,1,.35-.94,1.31,1.31,0,0,1,.91-.41h0a1.31,1.31,0,0,1,.05,2.62Z"/><path class="cls-3" d="M89.6,68.86a2.62,2.62,0,0,0-1.83.84,2.58,2.58,0,0,0,.57,4l-.86,2.87a1.71,1.71,0,0,1-1.79,1.24l-23-1.51A2.64,2.64,0,0,0,62,74.88a2.73,2.73,0,0,0-1.89-.71,2.62,2.62,0,0,0-1.84.84,2.62,2.62,0,0,0,.13,3.72,2.59,2.59,0,0,0,1.79.71h.1a2.62,2.62,0,0,0,2.39-1.8l23,1.5h.2A3.05,3.05,0,0,0,88.75,77l.85-2.85.09,0h.09a2.64,2.64,0,0,0,2.55-2.72A2.71,2.71,0,0,0,89.6,68.86Zm.14,4a1.66,1.66,0,0,1-.94-.35,1.29,1.29,0,0,1-.41-.92,1.3,1.3,0,0,1,.34-.94,1.35,1.35,0,0,1,.92-.41h0a1.31,1.31,0,0,1,0,2.62Z"/><path class="cls-3" d="M107.29,52.16a2.68,2.68,0,0,0-1.84.84,2.63,2.63,0,0,0-.63,1.41l-9,1a3.07,3.07,0,0,0-2.61,2.18L92.1,61.16a1.16,1.16,0,0,0-.18,0A2.64,2.64,0,0,0,92,66.39h.09a2.63,2.63,0,0,0,2.54-2.72,2.5,2.5,0,0,0-1.28-2.1l1.08-3.64a1.76,1.76,0,0,1,1.49-1.24l9-1a2.6,2.6,0,0,0,.64,1,2.65,2.65,0,0,0,1.79.7h.1a2.64,2.64,0,0,0,1.71-4.56A2.71,2.71,0,0,0,107.29,52.16ZM92.05,65.07h0A1.31,1.31,0,0,1,92,62.45H92a1.31,1.31,0,0,1,0,2.62Zm16.29-9.38a1.3,1.3,0,0,1-.92.42,1.43,1.43,0,0,1-.94-.35,1.33,1.33,0,0,1-.41-.92,1.3,1.3,0,0,1,1.27-1.35h0a1.26,1.26,0,0,1,.89.35,1.28,1.28,0,0,1,.42.92A1.33,1.33,0,0,1,108.34,55.69Z"/><path class="cls-3" d="M70,73.82a2.12,2.12,0,0,0,.73-.13A2.21,2.21,0,0,0,72,72.55a2.46,2.46,0,0,0,.14-.55l8.93.59h.18a2.67,2.67,0,0,0,2.56-1.92l.95-3.19a1.66,1.66,0,0,0,.37.09,2.1,2.1,0,0,0,.74-.13,2.21,2.21,0,0,0,1.27-1.13,2.23,2.23,0,0,0,.11-1.72,2.24,2.24,0,0,0-4.13-.24,2.24,2.24,0,0,0,1,3s.07,0,.1,0l-1,3.16a2.14,2.14,0,0,1-2,1.53h-.15l-8.91-.59a2.05,2.05,0,0,0-1.23-1.91,2.24,2.24,0,1,0-1,4.26ZM83.5,65.9a1.68,1.68,0,0,1,1-2.17,1.58,1.58,0,0,1,.56-.1,1.72,1.72,0,0,1,1.54,2.46,1.73,1.73,0,0,1-2.28.79A1.71,1.71,0,0,1,83.5,65.9ZM69.4,70a1.62,1.62,0,0,1,.56-.1,1.79,1.79,0,0,1,.75.17,1.71,1.71,0,0,1,.87,1,1.68,1.68,0,0,1-.08,1.3,1.71,1.71,0,0,1-1,.87A1.7,1.7,0,0,1,69.4,70Z"/><path class="cls-3" d="M89.83,55.07a2.21,2.21,0,0,0,1.28.41l.39,0A2.27,2.27,0,0,0,93,54.53a2.25,2.25,0,0,0,.37-1.67A2.22,2.22,0,0,0,90.74,51a2.2,2.2,0,0,0-1.45.91,2.23,2.23,0,0,0-.37,1.57l-9.1,2.27a2.66,2.66,0,0,0-2,2.19L77.2,62a1.77,1.77,0,0,0-.46,0,2.23,2.23,0,0,0-1.82,2.59,2.2,2.2,0,0,0,.91,1.44,2.22,2.22,0,0,0,1.29.41,2.66,2.66,0,0,0,.39,0,2.25,2.25,0,0,0,1.82-2.59,2.17,2.17,0,0,0-1.61-1.76l.62-4A2.16,2.16,0,0,1,80,56.3L89.07,54A2.11,2.11,0,0,0,89.83,55.07Zm-.11-2.81a1.68,1.68,0,0,1,1.11-.7l.29,0a1.66,1.66,0,0,1,1,.32,1.7,1.7,0,0,1,.7,1.1,1.71,1.71,0,0,1-1.39,2,1.68,1.68,0,0,1-2-1.39A1.68,1.68,0,0,1,89.72,52.26ZM78.81,63.93a1.77,1.77,0,0,1-.29,1.28,1.72,1.72,0,0,1-1.11.7,1.65,1.65,0,0,1-1.27-.29,1.72,1.72,0,0,1-.7-1.11,1.65,1.65,0,0,1,.29-1.27,1.7,1.7,0,0,1,1.1-.7,1.51,1.51,0,0,1,.3,0,1.65,1.65,0,0,1,1,.31A1.7,1.7,0,0,1,78.81,63.93Z"/><path class="cls-3" d="M118.88,45a2.21,2.21,0,0,0-1.56.71,2.19,2.19,0,0,0-.58,1.5l-15.91,1.71a2.22,2.22,0,0,0-2.14-1.75h-.08a2.24,2.24,0,0,0,.08,4.48h.07a2.22,2.22,0,0,0,2.15-2.21l15.91-1.71A2.15,2.15,0,0,0,119,49.49H119A2.24,2.24,0,0,0,119,45ZM98.75,51.13h-.06a1.71,1.71,0,0,1-.06-3.42h.06a1.71,1.71,0,0,1,.06,3.42Zm21.91-3.94A1.71,1.71,0,0,1,119,49H119a1.7,1.7,0,0,1-1.7-1.65,1.68,1.68,0,0,1,.46-1.22,1.72,1.72,0,0,1,1.19-.54H119a1.68,1.68,0,0,1,1.16.46A1.64,1.64,0,0,1,120.66,47.19Z"/><path class="cls-3" d="M125.92,11a2.24,2.24,0,0,0,2.16-2.31,2.21,2.21,0,0,0-.71-1.56,2.23,2.23,0,0,0-1.53-.6h-.07a2.24,2.24,0,0,0-2.16,2.31,2.19,2.19,0,0,0,.78,1.6l-3.91,5.76a2.16,2.16,0,0,1-1.44.69l-10.05.2a2.08,2.08,0,0,0-.65-1.3,2.17,2.17,0,0,0-1.6-.6,2.24,2.24,0,0,0-1.56.7,2.27,2.27,0,0,0-.6,1.61,2.24,2.24,0,0,0,2.24,2.16h.07a2.22,2.22,0,0,0,2.12-2l10.06-.2a2.69,2.69,0,0,0,1.82-.89l3.94-5.8a2.17,2.17,0,0,0,1,.27Zm-1.78-2.18A1.69,1.69,0,0,1,125.79,7h0a1.71,1.71,0,0,1,.06,3.41A1.71,1.71,0,0,1,124.14,8.78Z"/><path class="cls-3" d="M124.83,21.47h0A2.24,2.24,0,0,0,122,20a2.22,2.22,0,0,0-1.49,2.33l-6.82,1.44a2.23,2.23,0,1,0-2.1,3,2.35,2.35,0,0,0,.68-.11,2.22,2.22,0,0,0,1.5-2.32l6.81-1.45a2.24,2.24,0,0,0,2.12,1.52,2,2,0,0,0,.68-.11A2.23,2.23,0,0,0,124.83,21.47Zm-12.71,4.67a1.71,1.71,0,0,1-1.06-3.26,2,2,0,0,1,.53-.08,1.71,1.71,0,0,1,.53,3.34Zm11.11-2.36a1.71,1.71,0,0,1-1-3.25,1.57,1.57,0,0,1,.52-.08,1.71,1.71,0,0,1,.53,3.33Z"/><path class="cls-3" d="M127.85,45a2.09,2.09,0,0,0,.36.07h.08a2.64,2.64,0,0,0-.08-5.27h-.09a2.65,2.65,0,0,0-2.55,2.73,2.59,2.59,0,0,0,1.05,2l-.57,1.36a3.09,3.09,0,0,0,.54,3.27l2.29,2.56a1.73,1.73,0,0,1,.22,2,1.77,1.77,0,0,1-2.26.71l-3.35-1.58a3.17,3.17,0,0,0-1.64-.27l-4.57.48a2.6,2.6,0,0,0-2.53-1.72,2.64,2.64,0,0,0,.09,5.27h.09a2.59,2.59,0,0,0,2.46-2.23L122,53.9a1.75,1.75,0,0,1,.93.15l3.34,1.58a3.15,3.15,0,0,0,1.3.29,3.07,3.07,0,0,0,2.3-5.13l-2.29-2.55a1.76,1.76,0,0,1-.31-1.87Zm.31-3.88h.05a1.31,1.31,0,0,1,1.3,1.27,1.27,1.27,0,0,1-.35.94,1.31,1.31,0,0,1-.91.41h-.05a1.3,1.3,0,0,1-1.3-1.26A1.32,1.32,0,0,1,128.16,41.12Z"/><path class="cls-3" d="M64,41.07a2.68,2.68,0,0,0-1.45-.46A2.63,2.63,0,0,0,60,43.33a2.68,2.68,0,0,0,.84,1.84,2.61,2.61,0,0,0,1.79.71h.1A2.56,2.56,0,0,0,65,42l1.1-1a3.06,3.06,0,0,0,.46-4l-5.6-8.29a2.59,2.59,0,0,0,.67-1.82,2.68,2.68,0,0,0-2.73-2.54,2.61,2.61,0,0,0-1.83.83,2.66,2.66,0,0,0-.71,1.89A2.65,2.65,0,0,0,59,29.63H59a2.88,2.88,0,0,0,.77-.18l5.61,8.3A1.73,1.73,0,0,1,65.16,40ZM59,28.3a1.46,1.46,0,0,1-.94-.35A1.29,1.29,0,0,1,58,26.1a1.3,1.3,0,0,1,.91-.42h0a1.31,1.31,0,0,1,.9.36,1.29,1.29,0,0,1,.41.91A1.3,1.3,0,0,1,59,28.3Z"/><path class="cls-3" d="M45,25.24a3.1,3.1,0,0,0,3,2.31h0a2.64,2.64,0,0,0,2.44,1.69h.09a2.65,2.65,0,0,0,2.54-2.73,2.58,2.58,0,0,0-.84-1.83A2.66,2.66,0,0,0,50.39,24a2.51,2.51,0,0,0-2.47,2.22,1.77,1.77,0,0,1-1.63-1.28L46,23.65a1.74,1.74,0,0,1,.77-1.91l8.07-5.1a2.67,2.67,0,0,0,1.8.72h.09a2.64,2.64,0,0,0-.09-5.27h-.09A2.65,2.65,0,0,0,54,14.81a2.25,2.25,0,0,0,.17.69L46,20.62A3.07,3.07,0,0,0,44.69,24ZM56.57,13.41h0a1.31,1.31,0,0,1,0,2.62h0a1.31,1.31,0,0,1,0-2.62Z"/><path class="cls-3" d="M122,32.13h.1a2.26,2.26,0,0,0,2.16-2.32A2.24,2.24,0,0,0,122,27.66h-.07A2.24,2.24,0,0,0,119.77,30,2.2,2.2,0,0,0,121.46,32l-.57,4.28a3.94,3.94,0,0,1-3.5,3.6L97.58,41.83A2.16,2.16,0,0,0,97,40.67a2.09,2.09,0,0,0-1.6-.6,2.24,2.24,0,0,0-2.16,2.31,2.24,2.24,0,0,0,2.23,2.16h.08a2.21,2.21,0,0,0,1.56-.71,2.18,2.18,0,0,0,.58-1.47l19.8-1.92a4.47,4.47,0,0,0,4-4.08ZM96.68,43.47a1.68,1.68,0,0,1-1.19.54,1.83,1.83,0,0,1-1.22-.46,1.71,1.71,0,0,1,1.11-2.95h.06a1.72,1.72,0,0,1,1.16.45,1.68,1.68,0,0,1,.54,1.2A1.64,1.64,0,0,1,96.68,43.47Z"/><path class="cls-3" d="M76.24,40a2.22,2.22,0,0,0-2.18-1.9H74a2.24,2.24,0,0,0-2.17,2.31,2.25,2.25,0,0,0,2.24,2.17h.08a2.21,2.21,0,0,0,2.11-2.05l7-.24a4.45,4.45,0,0,0,2.41-.8L94,33.63a2.2,2.2,0,0,0,1.65.76h.08a2.24,2.24,0,0,0-.08-4.48h-.07a2.24,2.24,0,0,0-2.17,2.32,2.24,2.24,0,0,0,.29,1L85.37,39a3.94,3.94,0,0,1-2.12.72ZM74.12,42h-.06A1.71,1.71,0,0,1,74,38.61h.06A1.71,1.71,0,0,1,74.12,42ZM95.59,30.44h.06a1.71,1.71,0,0,1,.06,3.42h-.06a1.71,1.71,0,0,1-.06-3.42Z"/><path class="cls-3" d="M80.61,47.8l4.12-.14a2.25,2.25,0,0,0,.65,1.3,2.21,2.21,0,0,0,1.52.6H87a2.24,2.24,0,0,0,1.45-3.87,2.18,2.18,0,0,0-1.6-.6,2.21,2.21,0,0,0-1.56.71,2.15,2.15,0,0,0-.56,1.33l-4.11.14a4.49,4.49,0,0,0-2.89,1.19L64.59,60.62a2.16,2.16,0,0,0-1.51-.54,2.24,2.24,0,0,0-2.16,2.31A2.15,2.15,0,0,0,61.63,64a2.2,2.2,0,0,0,1.52.61h.08a2.24,2.24,0,0,0,2.16-2.31A2.15,2.15,0,0,0,64.93,61L78.07,48.85A3.89,3.89,0,0,1,80.61,47.8ZM64.4,63.48a1.64,1.64,0,0,1-1.19.54h-.06A1.7,1.7,0,0,1,62,63.57a1.71,1.71,0,0,1,1.11-3h.06a1.71,1.71,0,0,1,1.7,1.65A1.66,1.66,0,0,1,64.4,63.48Z"/><path class="cls-3" d="M60,71.1a2.26,2.26,0,0,0,2.1,1.46,2.08,2.08,0,0,0,.73-.13,2.18,2.18,0,0,0,1.28-1.14,2.21,2.21,0,0,0,.1-1.71,2.23,2.23,0,0,0-2.85-1.37,2.2,2.2,0,0,0-1.45,2.36l-2.48.59A2.09,2.09,0,0,1,56,71L49.29,68a2.17,2.17,0,0,0,0-1.4,2.21,2.21,0,0,0-1.14-1.28A2.24,2.24,0,0,0,45.08,68a2.21,2.21,0,0,0,1.14,1.28,2.24,2.24,0,0,0,1,.23,2.34,2.34,0,0,0,.73-.13,2.15,2.15,0,0,0,1.15-1l6.74,3.07a2.83,2.83,0,0,0,1.11.23,2.56,2.56,0,0,0,.62-.07Zm.56-1.52a1.68,1.68,0,0,1,1-.87,1.52,1.52,0,0,1,.55-.1,1.71,1.71,0,0,1,1.62,1.15,1.72,1.72,0,0,1-1.05,2.17,1.71,1.71,0,0,1-2.18-1.05A1.68,1.68,0,0,1,60.56,69.58Zm-12.8-.66a1.7,1.7,0,0,1-1.31-.08,1.62,1.62,0,0,1-.86-1,1.71,1.71,0,0,1,1-2.18,1.77,1.77,0,0,1,.56-.09,1.74,1.74,0,0,1,.74.17,1.7,1.7,0,0,1-.18,3.15Z"/></g></g></svg>