<svg width="146" height="146" viewBox="0 0 146 146" fill="none" xmlns="http://www.w3.org/2000/svg">
<g filter="url(#filter0_d_388_634)">
<circle cx="60.5" cy="60.5" r="60.5" transform="matrix(0.999733 -0.0231166 0.0234601 0.999725 11 9.79712)" fill="white"/>
</g>
<path d="M72.8835 101.298C66.478 101.298 60.2164 99.398 54.8904 95.8382C49.5645 92.2783 45.4134 87.2185 42.9621 81.2987C40.5109 75.3788 39.8695 68.8648 41.1191 62.5804C42.3688 56.2959 45.4533 50.5232 49.9827 45.9924C54.512 41.4615 60.2828 38.376 66.5652 37.1259C72.8476 35.8759 79.3595 36.5175 85.2773 38.9695C91.1952 41.4216 96.2533 45.5741 99.812 50.9018C103.371 56.2295 105.27 62.4932 105.27 68.9008C105.26 77.4899 101.845 85.7244 95.7731 91.7979C89.7016 97.8714 81.4699 101.288 72.8835 101.298ZM72.8835 37.6399C66.7019 37.6399 60.6591 39.4736 55.5192 42.909C50.3794 46.3445 46.3734 51.2274 44.0078 56.9404C41.6422 62.6533 41.0232 68.9397 42.2292 75.0046C43.4352 81.0694 46.4119 86.6403 50.783 91.0128C55.154 95.3853 60.7231 98.3631 66.786 99.5694C72.8488 100.776 79.1331 100.157 84.8442 97.7903C90.5553 95.4239 95.4366 91.4166 98.871 86.275C102.305 81.1335 104.138 75.0887 104.138 68.905C104.13 60.615 100.835 52.6668 94.9755 46.8045C89.116 40.9421 81.1708 37.6447 72.8835 37.6356V37.6399Z" fill="#6E807F"/>
<path d="M36.1802 63.7826C35.8898 65.9188 34.2241 67.6277 31.6402 67.2774C29.0562 66.9271 27.9073 64.855 28.1978 62.6889C28.2478 62.0882 28.4337 61.5068 28.7415 60.9887C29.0493 60.4706 29.471 60.0293 29.9745 59.6982L30.8543 61.0056C30.5377 61.214 30.2705 61.489 30.0713 61.8115C29.8721 62.134 29.7458 62.4962 29.7011 62.8726C29.5346 64.1201 30.3162 65.2096 31.8879 65.436C33.4596 65.6625 34.5017 64.7781 34.6683 63.522C34.8348 62.2659 34.3907 61.8387 34.3907 61.8387L33.246 61.6849L33.0282 63.3127L31.6487 63.1418L32.1057 59.7239L35.3174 60.1511C35.7069 60.6625 35.9849 61.2499 36.1335 61.8754C36.2821 62.5009 36.298 63.1506 36.1802 63.7826Z" fill="#69164A"/>
<path d="M38.4593 55.1905C37.6051 57.3267 35.5208 58.4802 33.1761 57.5446C30.8313 56.6089 30.0967 54.3531 30.9595 52.1956C31.8222 50.038 33.9021 48.9059 36.2512 49.8415C38.6002 50.7772 39.3177 53.033 38.4593 55.1905ZM32.4116 52.7723C31.9247 53.9857 32.4372 55.2503 33.8253 55.8014C35.2133 56.3526 36.4604 55.8014 36.9431 54.5838C37.4257 53.3662 36.9089 52.1059 35.5208 51.5504C34.1328 50.995 32.8899 51.5633 32.4116 52.7723Z" fill="#69164A"/>
<path d="M43.4359 45.2529C43.3949 45.9575 43.1367 46.632 42.697 47.184L40.852 49.7987L34.4669 45.2871L36.0002 43.1124C36.3469 42.5506 36.8191 42.0768 37.3797 41.7282C37.6774 41.5633 38.0165 41.488 38.356 41.5115C38.6955 41.535 39.0209 41.6563 39.2931 41.8606C39.5986 42.0679 39.8341 42.3631 39.9683 42.7072C40.1025 43.0512 40.1292 43.4279 40.0448 43.7875C40.8007 43.1295 41.7105 42.98 42.4963 43.5354C42.7876 43.7165 43.0271 43.9697 43.1918 44.2706C43.3564 44.5715 43.4405 44.9099 43.4359 45.2529ZM37.6573 43.3859C37.4026 43.5123 37.1925 43.7135 37.0551 43.9626L36.628 44.5821L38.0844 45.6246L38.5115 45.0393C38.7129 44.8178 38.8385 44.538 38.8703 44.2403C38.8786 44.0912 38.8465 43.9426 38.7773 43.8103C38.7081 43.6779 38.6045 43.5667 38.4773 43.4884C38.3644 43.3955 38.2273 43.3365 38.0822 43.3183C37.937 43.3002 37.7897 43.3236 37.6573 43.3859ZM40.4463 44.8556C40.1351 44.9934 39.8772 45.2289 39.7117 45.5263L39.1351 46.3509L40.7666 47.5002L41.3474 46.6756C41.5704 46.4183 41.7051 46.0964 41.7318 45.757C41.7292 45.6043 41.6905 45.4544 41.619 45.3195C41.5475 45.1845 41.4451 45.0684 41.3202 44.9806C41.1953 44.8927 41.0515 44.8356 40.9003 44.8139C40.7492 44.7921 40.5951 44.8064 40.4505 44.8556H40.4463Z" fill="#69164A"/>
<path d="M45.6312 43.591L40.0405 38.131L41.3218 36.8193L46.9125 42.2794L45.6312 43.591Z" fill="#69164A"/>
<path d="M48.5523 40.682L43.8542 34.4487L47.8946 31.3982L48.7616 32.5645L46.199 34.517L47.16 35.7987L49.5987 33.9573L50.47 35.1109L48.0312 36.9565L49.1246 38.4006L51.7897 36.3883L52.6823 37.5718L48.5523 40.682Z" fill="#69164A"/>
<path d="M57.952 34.8109L55.1673 32.8371L54.6505 33.0849L55.9318 35.7765L54.3131 36.5754L50.8964 29.5431L53.4589 28.3212C54.0953 27.9662 54.8295 27.8268 55.5517 27.9239C55.8902 27.9914 56.2078 28.1387 56.4781 28.3534C56.7485 28.5681 56.9638 28.8441 57.1063 29.1586C57.3518 29.5855 57.4457 30.083 57.3728 30.5701C57.2999 31.0571 57.0645 31.5053 56.7049 31.8416L59.8654 33.8881L57.952 34.8109ZM54.7402 29.4833C54.412 29.4536 54.0832 29.5332 53.8049 29.7097L53.1514 30.0216L54.0056 31.8288L54.689 31.5255C54.9988 31.4126 55.2629 31.2009 55.4407 30.9231C55.5147 30.7853 55.5549 30.632 55.5581 30.4757C55.5613 30.3193 55.5272 30.1645 55.4588 30.0238C55.3904 29.8832 55.2896 29.7609 55.1647 29.6669C55.0397 29.5729 54.8942 29.51 54.7402 29.4833Z" fill="#69164A"/>
<path d="M66.2173 32.2866L61.7029 27.8775C61.7029 27.8775 61.9421 28.7875 62.13 29.5864L62.9116 33.0342L61.1477 33.4316L59.4393 25.8139L61.3484 25.3867L65.7774 29.7659C65.7774 29.7659 65.5511 28.9114 65.3503 28.1082L64.5645 24.6476L66.3113 24.2502L68.0197 31.8679L66.2173 32.2866Z" fill="#69164A"/>
<path d="M73.9349 31.8853C71.6115 31.8169 69.8348 30.2618 69.9074 27.7368C69.98 25.2119 71.8464 23.7464 74.1784 23.8148C76.5103 23.8831 78.2742 25.4511 78.2016 27.9761C78.129 30.501 76.2541 31.9536 73.9349 31.8853ZM74.1229 25.3785C72.8416 25.34 71.808 26.2329 71.7653 27.7454C71.7226 29.2578 72.6793 30.2191 73.9819 30.2447C75.2846 30.2703 76.2925 29.3603 76.3352 27.865C76.3779 26.3697 75.4212 25.4169 74.1229 25.3785Z" fill="#69164A"/>
<path d="M85.5337 33.9445L82.7789 32.8978L85.5551 25.592L88.3098 26.6388C90.7357 27.5573 92.0469 29.2364 91.0518 31.8639C90.0566 34.4914 87.9553 34.8673 85.5337 33.9445ZM87.7461 28.6639L87.1994 28.4545L85.9181 31.7912L86.469 32.0006C87.5368 32.4278 88.2329 32.0006 88.6259 30.9453C89.0188 29.89 88.8565 29.0868 87.7461 28.6639Z" fill="#6E807F"/>
<path d="M90.9839 36.4225L95.0242 29.7319L97.2152 31.0564L93.1792 37.7426L90.9839 36.4225Z" fill="#6E807F"/>
<path d="M97.6134 41.3533C96.0503 39.9562 95.3669 37.6662 97.212 35.5941C99.057 33.522 101.406 33.9493 103.012 35.3805C103.491 35.7654 103.879 36.2524 104.146 36.8059C104.414 37.3595 104.554 37.9657 104.558 38.5805L102.35 38.5079C102.341 38.2109 102.271 37.9189 102.145 37.6499C102.018 37.381 101.838 37.1408 101.615 36.9442C100.941 36.3418 99.9582 36.376 99.1296 37.3031C98.3011 38.2302 98.3822 39.2171 99.057 39.8195C99.7318 40.4219 100.048 40.3236 100.048 40.3236L100.424 39.8964L99.5396 39.106L100.795 37.6919L103.542 40.1399L101.265 42.7034C100.595 42.7508 99.9234 42.6549 99.2938 42.4221C98.6641 42.1893 98.0913 41.825 97.6134 41.3533Z" fill="#6E807F"/>
<path d="M101.41 45.0779L107.569 40.2715L109.144 42.288L103.003 47.0944L101.41 45.0779Z" fill="#6E807F"/>
<path d="M111.118 49.2351L105.993 52.0335L104.755 49.7948L109.841 46.9793L108.983 45.3943L110.725 44.4287L113.732 49.8973L111.972 50.8458L111.118 49.2351Z" fill="#6E807F"/>
<path d="M108.691 58.9286L109.644 58.3048L108.969 56.1686L107.833 56.2199L107.021 53.6821L115.299 53.9L116.153 56.6002L109.529 61.5646L108.691 58.9286ZM113.172 56.0148L111.002 56.1003L111.352 57.2026L113.172 56.0148Z" fill="#6E807F"/>
<path d="M109.593 62.7909L117.362 62.0176L117.614 64.5511L111.929 65.1193L112.194 67.7682L110.11 67.9732L109.593 62.7909Z" fill="#6E807F"/>
<path d="M34.1377 91.4971L39.5533 88.3484L40.006 88.9807L37.0419 93.5479L42.3123 92.1807L42.7821 92.8344L38.0841 96.97L37.6869 96.4189L41.6418 93.001L36.1194 94.3895L35.9358 94.1332L38.981 89.4336L34.5434 92.0611L34.1377 91.4971Z" fill="#6D807F"/>
<path d="M46.6263 96.7095L47.1346 97.1623L42.9619 101.823L42.4579 101.371L46.6263 96.7095Z" fill="#6D807F"/>
<path d="M50.3041 107.219C48.7068 106.279 48.2455 104.502 49.2236 102.84C49.424 102.465 49.6993 102.136 50.0322 101.872C50.3652 101.608 50.7489 101.416 51.1594 101.306C51.5698 101.197 51.9984 101.173 52.4185 101.236C52.8385 101.299 53.2411 101.448 53.6013 101.673C53.9634 101.871 54.2817 102.14 54.5372 102.463C54.7926 102.787 54.9798 103.159 55.0876 103.558L54.5195 103.844C54.4426 103.501 54.295 103.178 54.0861 102.896C53.8773 102.613 53.6118 102.377 53.3066 102.203C52.0253 101.46 50.6202 101.844 49.8343 103.177C49.6453 103.46 49.5171 103.778 49.4578 104.113C49.3984 104.448 49.4093 104.791 49.4896 105.121C49.5699 105.451 49.7179 105.761 49.9243 106.031C50.1307 106.301 50.391 106.525 50.6885 106.689C50.991 106.882 51.3306 107.009 51.6852 107.062C52.0398 107.115 52.4015 107.092 52.7471 106.997L52.7984 107.582C52.3811 107.705 51.942 107.737 51.5114 107.674C51.0808 107.612 50.6689 107.456 50.3041 107.219Z" fill="#6D807F"/>
<path d="M62.8817 108.971L59.4393 107.972L58.5851 110.868L57.9316 110.68L59.6742 104.673L60.3276 104.861L59.5888 107.403L63.0354 108.403L63.7743 105.861L64.4278 106.049L62.6852 112.056L62.0318 111.868L62.8817 108.971Z" fill="#6D807F"/>
<path d="M68.8956 109.971C68.9143 109.341 69.1191 108.73 69.4843 108.215C69.8495 107.701 70.3587 107.306 70.9478 107.081C71.5369 106.856 72.1794 106.81 72.7945 106.949C73.4096 107.088 73.9697 107.407 74.4042 107.864C74.8388 108.321 75.1283 108.897 75.2363 109.518C75.3443 110.14 75.266 110.78 75.0113 111.357C74.7565 111.934 74.3367 112.423 73.8048 112.761C73.2728 113.1 72.6524 113.274 72.0219 113.261C71.5964 113.265 71.1748 113.181 70.783 113.015C70.3913 112.848 70.0379 112.603 69.7447 112.295C69.4516 111.987 69.2249 111.621 69.0789 111.221C68.9328 110.822 68.8704 110.396 68.8956 109.971ZM74.5888 110.082C74.6145 109.743 74.5708 109.402 74.4605 109.08C74.3501 108.758 74.1753 108.462 73.9467 108.21C73.7182 107.958 73.4407 107.756 73.1312 107.615C72.8217 107.474 72.4867 107.397 72.1466 107.39C71.8066 107.382 71.4686 107.445 71.1534 107.572C70.8381 107.7 70.5522 107.891 70.3131 108.133C70.074 108.375 69.8868 108.663 69.7627 108.98C69.6387 109.297 69.5805 109.635 69.5917 109.975C69.566 110.315 69.6097 110.656 69.7201 110.977C69.8304 111.299 70.0053 111.595 70.2338 111.847C70.4624 112.099 70.7398 112.302 71.0493 112.443C71.3588 112.584 71.6938 112.661 72.0339 112.668C72.3739 112.675 72.7119 112.613 73.0271 112.485C73.3424 112.358 73.6283 112.167 73.8674 111.925C74.1065 111.683 74.2938 111.395 74.4178 111.078C74.5418 110.761 74.6 110.422 74.5888 110.082Z" fill="#6D807F"/>
<path d="M84.2923 109.953L81.5119 110.603L81.23 112.465L80.5424 112.623L81.6528 105.924L82.1568 105.805L86.1202 111.325L85.3685 111.5L84.2923 109.953ZM82.0756 106.77L81.5887 109.966L83.9121 109.423L82.0756 106.77Z" fill="#6D807F"/>
<path d="M93.8973 108.181C92.2402 109.035 90.4805 108.45 89.6263 106.728C89.4193 106.357 89.2907 105.948 89.2484 105.525C89.206 105.103 89.2509 104.676 89.3803 104.271C89.5096 103.867 89.7206 103.493 90.0002 103.173C90.2799 102.854 90.6221 102.595 91.0059 102.413C91.3676 102.215 91.7654 102.093 92.1757 102.052C92.5859 102.012 93 102.055 93.3933 102.178L93.3293 102.81C92.9996 102.69 92.6484 102.64 92.2983 102.663C91.9481 102.687 91.6068 102.783 91.2963 102.947C89.9851 103.609 89.5409 105.015 90.2371 106.395C90.3712 106.708 90.5691 106.989 90.818 107.222C91.0669 107.454 91.3615 107.632 91.6829 107.744C92.0043 107.856 92.3456 107.9 92.6849 107.873C93.0242 107.846 93.3542 107.749 93.6538 107.587C93.9793 107.436 94.2696 107.219 94.5057 106.949C94.7419 106.678 94.9187 106.362 95.0248 106.019L95.5501 106.292C95.4258 106.707 95.2139 107.09 94.9288 107.416C94.6436 107.742 94.2919 108.003 93.8973 108.181Z" fill="#6D807F"/>
<path d="M97.9759 97.2264L97.7495 95.6883L98.2919 95.2227L98.3816 96.8761L97.9759 97.2264ZM102.512 99.9265L100.351 101.789L100.966 103.567L100.44 104.028L98.3047 97.5853L98.6977 97.2478L104.762 100.311L104.182 100.811L102.512 99.9265ZM99.0949 98.1321L100.141 101.166L101.944 99.6104L99.0949 98.1321Z" fill="#6D807F"/>
<path d="M104.749 92.4073L106.555 93.6633L109.028 95.4022L108.64 95.9576L103.515 92.3688L103.942 91.7878L110.348 91.6126L106.133 88.6561L106.517 88.105L111.642 91.6938L111.271 92.2278L104.749 92.4073Z" fill="#6D807F"/>
<path d="M33.4414 75.1383L31.8141 75.3476L33.1125 74.3479L32.3224 73.5575L31.323 74.8563L31.5323 73.2285H30.4133L30.6268 74.8563L29.6231 73.5575L28.833 74.3479L30.1357 75.3476L28.5084 75.1383V76.2576L30.1357 76.044L28.833 77.0437L29.6231 77.8384L30.6268 76.5353L30.4133 78.1631H31.5323L31.323 76.5353L32.3224 77.8384L33.1125 77.0437L31.8141 76.044L33.4414 76.2576V75.1383Z" fill="#F7C1CF"/>
<path d="M117.264 75.1383L115.637 75.3476L116.935 74.3479L116.145 73.5575L115.146 74.8563L115.355 73.2285H114.236L114.45 74.8563L113.446 73.5575L112.656 74.3479L113.958 75.3476L112.331 75.1383V76.2576L113.958 76.044L112.656 77.0437L113.446 77.8384L114.45 76.5353L114.236 78.1631H115.355L115.146 76.5353L116.145 77.8384L116.935 77.0437L115.637 76.044L117.264 76.2576V75.1383Z" fill="#F7C1CF"/>
<path d="M72.8836 17C59.128 17.0158 45.9405 22.489 36.2138 32.2188C26.4872 41.9487 21.0158 55.1406 21 68.9007C21 93.4753 38.1906 114.128 61.1769 119.451V118.289C49.0729 115.418 38.4445 108.201 31.3102 98.0069C24.1759 87.8132 21.0327 75.3534 22.4774 62.994C23.9221 50.6346 29.8542 39.2364 39.147 30.9641C48.4399 22.6919 60.4462 18.1218 72.8857 18.1218C85.3252 18.1218 97.3315 22.6919 106.624 30.9641C115.917 39.2364 121.849 50.6346 123.294 62.994C124.739 75.3534 121.595 87.8132 114.461 98.0069C107.327 108.201 96.6985 115.418 84.5945 118.289V119.451C97.0025 116.573 107.918 109.229 115.262 98.8189C122.606 88.4087 125.865 75.6596 124.418 63.0007C122.971 50.3418 116.919 38.6577 107.416 30.1746C97.9121 21.6915 85.6208 17.0021 72.8836 17Z" fill="#6E807F"/>
<path d="M68.3571 121.609C67.9879 121.883 67.535 122.02 67.0758 121.997C66.4549 121.972 65.8645 121.721 65.4144 121.292L65.9568 120.489C66.2786 120.828 66.713 121.038 67.1783 121.079C67.5286 121.079 67.8019 120.912 67.8019 120.6C67.8019 120.288 67.4559 120.173 67.2509 120.083C67.0459 119.994 66.6957 119.887 66.542 119.819C66.3366 119.739 66.1472 119.623 65.9825 119.477C65.8588 119.363 65.7618 119.223 65.6983 119.067C65.6348 118.911 65.6064 118.743 65.6152 118.575C65.6149 118.378 65.6589 118.184 65.7439 118.007C65.8289 117.829 65.9528 117.673 66.1063 117.55C66.4612 117.284 66.8979 117.151 67.3406 117.174C67.8894 117.185 68.4164 117.391 68.8269 117.755L68.3571 118.52C68.0803 118.238 67.709 118.069 67.315 118.045C66.9605 118.045 66.7043 118.182 66.7043 118.473C66.7043 118.763 66.9648 118.87 67.1783 118.947C67.3919 119.024 67.7293 119.152 67.8745 119.216C68.1169 119.295 68.3397 119.424 68.528 119.596C68.6475 119.714 68.7417 119.854 68.8049 120.009C68.868 120.164 68.8988 120.33 68.8953 120.498C68.8957 120.712 68.8474 120.923 68.7542 121.115C68.6609 121.308 68.5252 121.476 68.3571 121.609Z" fill="#69164A"/>
<path d="M72.2823 118.106V119.255H73.9907V120.109H72.2823V121.895H71.1932V117.196H74.1188V118.071L72.2823 118.106Z" fill="#69164A"/>
<path d="M79.1503 121.916L78.8171 120.972H77.1472L76.814 121.916H75.6694L77.4376 117.217H78.578L80.3419 121.916H79.1503ZM77.9843 118.43L77.3992 120.139H78.5651L77.9843 118.43Z" fill="#69164A"/>
<path d="M64.7732 72.6992H64.8074C65.0604 72.6903 65.2996 72.5815 65.4725 72.3965C65.6454 72.2115 65.738 71.9655 65.7299 71.7123C65.7207 71.4588 65.6117 71.2193 65.4267 71.0458C65.3363 70.9575 65.2284 70.889 65.11 70.8449C64.9916 70.8007 64.8652 70.7819 64.7391 70.7895C64.5654 70.7911 64.3956 70.8412 64.2489 70.9342C64.1023 71.0272 63.9845 71.1594 63.909 71.3158C63.8334 71.4722 63.8032 71.6467 63.8215 71.8194C63.8399 71.9922 63.9062 72.1563 64.013 72.2934L58.5846 77.3134C58.415 77.1657 58.1987 77.0825 57.9739 77.0784H57.9397C57.6975 77.098 57.4718 77.209 57.3085 77.389C57.1452 77.5689 57.0564 77.8043 57.0602 78.0473C57.064 78.2903 57.1601 78.5228 57.329 78.6975C57.4979 78.8723 57.7269 78.9762 57.9696 78.9882H58.0038C58.1294 78.9845 58.2531 78.9558 58.3675 78.9037C58.4819 78.8516 58.5848 78.7772 58.67 78.6848C58.8245 78.5255 58.9157 78.3154 58.9267 78.0937C58.9377 77.872 58.8678 77.6539 58.7298 77.48L64.1411 72.4643C64.3165 72.6164 64.5411 72.6999 64.7732 72.6992ZM64.7476 71.0159H64.7775C64.9606 71.0147 65.1369 71.0852 65.2687 71.2125C65.3397 71.2773 65.3971 71.3556 65.4374 71.443C65.4777 71.5303 65.5002 71.6248 65.5036 71.7209C65.509 71.9137 65.4384 72.1009 65.3071 72.2421C65.2418 72.3122 65.1633 72.3687 65.076 72.4083C64.9888 72.4479 64.8946 72.4698 64.7989 72.4728H64.7732C64.5892 72.4623 64.416 72.3827 64.2883 72.2498C64.1605 72.1169 64.0877 71.9406 64.0845 71.7563C64.0813 71.5719 64.1478 71.3932 64.2708 71.2559C64.3938 71.1186 64.5641 71.0329 64.7476 71.0159Z" fill="#6E807F"/>
<path d="M76.5223 59.7921C76.6995 59.9576 76.9332 60.0493 77.1757 60.0484H77.2056C77.3319 60.0449 77.4562 60.0162 77.5714 59.9641C77.6865 59.9121 77.7901 59.8376 77.8762 59.7451C78.0462 59.5589 78.1366 59.3135 78.1281 59.0615C78.1215 58.8133 78.0182 58.5775 77.8403 58.4043C77.6624 58.2312 77.4239 58.1343 77.1757 58.1344H77.1415C77.016 58.1385 76.8925 58.1674 76.7781 58.2195C76.6638 58.2715 76.5608 58.3457 76.4753 58.4377C76.3578 58.5716 76.2808 58.736 76.2532 58.912L70.0859 58.4847C70.0815 58.3621 70.0529 58.2415 70.0015 58.13C69.9502 58.0186 69.8773 57.9184 69.787 57.8353C69.6111 57.6671 69.3768 57.5737 69.1335 57.5747H69.1036C68.9142 57.581 68.7309 57.6434 68.577 57.7541C68.4232 57.8647 68.3056 58.0186 68.2392 58.1962C68.1729 58.3738 68.1608 58.5671 68.2044 58.7515C68.248 58.936 68.3455 59.1034 68.4843 59.2324C68.6595 59.3984 68.8922 59.4903 69.1335 59.4887H69.1677C69.2932 59.4869 69.4171 59.4594 69.5316 59.408C69.6462 59.3565 69.7491 59.2823 69.8339 59.1897C69.9514 59.0558 70.0284 58.8914 70.056 58.7154L76.2233 59.1427C76.234 59.39 76.3414 59.6232 76.5223 59.7921ZM77.1501 58.3651H77.1757C77.364 58.366 77.5448 58.4392 77.6807 58.5696C77.8166 58.7 77.8973 58.8776 77.9061 59.0658C77.9115 59.2586 77.8409 59.4458 77.7096 59.587C77.6447 59.6577 77.5663 59.7145 77.479 59.7541C77.3916 59.7938 77.2972 59.8154 77.2013 59.8177C77.1018 59.828 77.0012 59.8177 76.9058 59.7875C76.8103 59.7573 76.7221 59.7078 76.6467 59.6421C76.5712 59.5763 76.51 59.4958 76.4669 59.4054C76.4238 59.315 76.3998 59.2168 76.3963 59.1167C76.3928 59.0167 76.4098 58.9169 76.4465 58.8238C76.4831 58.7306 76.5384 58.6459 76.6091 58.575C76.6798 58.5042 76.7643 58.4486 76.8574 58.4117C76.9504 58.3749 77.0501 58.3575 77.1501 58.3608V58.3651ZM69.1591 59.258H69.1335C68.9493 59.2586 68.7719 59.1882 68.6381 59.0615C68.5672 58.9968 68.5103 58.9183 68.4706 58.8309C68.431 58.7436 68.4095 58.649 68.4074 58.5531C68.4005 58.36 68.4703 58.172 68.6016 58.0303C68.7329 57.8886 68.9149 57.8047 69.1079 57.7969H69.1335C69.3272 57.7935 69.5143 57.8672 69.6537 58.0018C69.793 58.1364 69.8733 58.3209 69.8767 58.5146C69.8801 58.7084 69.8064 58.8956 69.6718 59.035C69.5372 59.1744 69.3528 59.2546 69.1591 59.258Z" fill="#6E807F"/>
<path d="M72.0176 62.5392H72.0518C72.2688 62.5374 72.4781 62.458 72.6418 62.3154C72.8055 62.1729 72.9128 61.9764 72.9444 61.7616L77.7236 62.0991C77.9874 62.1199 78.2428 62.2018 78.4696 62.3382C78.6964 62.4746 78.8884 62.6619 79.0305 62.8852L80.8798 65.6024L80.7987 65.658C80.6265 65.8448 80.5345 66.0918 80.5424 66.3458C80.5523 66.5933 80.6573 66.8274 80.8356 66.9994C81.0138 67.1713 81.2515 67.2678 81.4991 67.2687H81.529C81.6547 67.2654 81.7784 67.2371 81.893 67.1856C82.0077 67.134 82.1109 67.0602 82.1967 66.9683C82.2826 66.8765 82.3493 66.7685 82.3931 66.6506C82.4368 66.5328 82.4567 66.4074 82.4515 66.2817C82.4502 66.1561 82.4229 66.032 82.3715 65.9173C82.3201 65.8027 82.2455 65.6998 82.1526 65.6153C81.9767 65.447 81.7425 65.3536 81.4991 65.3546H81.4692C81.3198 65.3589 81.1734 65.3984 81.0421 65.47L79.1971 62.757C79.0367 62.5046 78.8196 62.2932 78.563 62.1396C78.3064 61.986 78.0175 61.8946 77.7193 61.8727L72.9529 61.5394C72.943 61.2939 72.8381 61.0617 72.6605 60.892C72.4828 60.7222 72.2462 60.6281 72.0005 60.6294H71.9706C71.7176 60.6383 71.4784 60.7472 71.3055 60.9322C71.1326 61.1172 71.04 61.3632 71.0481 61.6163C71.0503 61.7423 71.0783 61.8664 71.1304 61.9811C71.1826 62.0958 71.2578 62.1985 71.3513 62.2828C71.4401 62.3673 71.5446 62.4334 71.6589 62.4774C71.7733 62.5214 71.8951 62.5424 72.0176 62.5392ZM81.4735 65.5811H81.4991C81.6881 65.582 81.8695 65.6558 82.0055 65.7871C82.1416 65.9184 82.2218 66.0971 82.2295 66.286C82.2329 66.382 82.2174 66.4777 82.1838 66.5676C82.1502 66.6576 82.0993 66.74 82.0338 66.8102C81.9684 66.8805 81.8897 66.9371 81.8024 66.9769C81.715 67.0167 81.6207 67.0389 81.5247 67.0422H81.4991C81.3136 67.0426 81.135 66.9723 80.9994 66.8457C80.8594 66.7126 80.7767 66.5303 80.7688 66.3373C80.763 66.1438 80.8338 65.9558 80.9657 65.8143C81.0977 65.6727 81.2801 65.5889 81.4735 65.5811Z" fill="#6E807F"/>
<path d="M61.6685 61.1723H61.7026C61.8521 61.1681 61.9985 61.1286 62.1297 61.057L65.3287 65.7267C65.5047 65.9831 65.7407 66.1927 66.0161 66.3371C66.2915 66.4816 66.598 66.5565 66.9089 66.5555C67.2762 66.5572 67.6359 66.4501 67.9425 66.2479L69.6979 65.0986C69.7197 65.1317 69.7439 65.1632 69.7705 65.1926C69.9457 65.3586 70.1783 65.4505 70.4197 65.449H70.4538C70.7069 65.44 70.946 65.3312 71.1189 65.1462C71.2919 64.9612 71.3844 64.7152 71.3764 64.462C71.3675 64.2142 71.2628 63.9795 71.0844 63.8073C70.9059 63.6352 70.6676 63.539 70.4197 63.5392H70.3855C70.2604 63.5436 70.1374 63.5727 70.0235 63.6246C69.9096 63.6766 69.8071 63.7506 69.7219 63.8423C69.6366 63.9339 69.5702 64.0415 69.5265 64.1588C69.4828 64.2762 69.4627 64.401 69.4672 64.5261C69.4735 64.661 69.5069 64.7932 69.5655 64.9149L67.8187 66.0556C67.4488 66.2893 67.0035 66.3721 66.5744 66.2871C66.1453 66.202 65.7652 65.9556 65.5123 65.5985L62.3134 60.9245C62.339 60.9245 62.3689 60.8903 62.3903 60.869C62.4761 60.7774 62.543 60.6698 62.5871 60.5522C62.6312 60.4347 62.6517 60.3096 62.6473 60.1842C62.643 60.0587 62.6139 59.9354 62.5617 59.8212C62.5095 59.707 62.4353 59.6043 62.3433 59.5189C62.1685 59.3517 61.936 59.2584 61.6941 59.2583H61.6599C61.5325 59.2593 61.4065 59.286 61.2896 59.3369C61.1727 59.3877 61.0672 59.4616 60.9795 59.5541C60.8918 59.6466 60.8236 59.7559 60.7791 59.8754C60.7346 59.9949 60.7146 60.1221 60.7203 60.2495C60.7292 60.4966 60.8332 60.7307 61.0108 60.9027C61.1883 61.0748 61.4256 61.1714 61.6727 61.1723H61.6685ZM70.3727 63.7656H70.3983C70.5875 63.769 70.7676 63.847 70.8996 63.9826C71.0316 64.1182 71.1047 64.3005 71.103 64.4897C71.1013 64.6789 71.025 64.8599 70.8906 64.9931C70.7562 65.1263 70.5747 65.201 70.3855 65.201C70.1963 65.201 70.0148 65.1263 69.8804 64.9931C69.746 64.8599 69.6697 64.6789 69.668 64.4897C69.6663 64.3005 69.7394 64.1182 69.8714 63.9826C70.0034 63.847 70.1835 63.769 70.3727 63.7656Z" fill="#6E807F"/>
<path d="M65.4179 62.6626C65.4268 62.9105 65.5315 63.1452 65.7099 63.3173C65.8884 63.4895 66.1267 63.5856 66.3746 63.5854H66.4045C66.5308 63.5819 66.6552 63.5533 66.7703 63.5012C66.8854 63.4491 66.989 63.3746 67.0751 63.2821C67.2025 63.1457 67.2874 62.9751 67.3191 62.7911C67.3508 62.6071 67.328 62.4179 67.2536 62.2467C67.1792 62.0755 67.0563 61.9298 66.9001 61.8276C66.7439 61.7254 66.5613 61.6711 66.3746 61.6714H66.3405C66.1986 61.6774 66.0599 61.7154 65.9347 61.7825L64.6534 59.9326C64.5319 59.7512 64.4789 59.5325 64.504 59.3157C64.529 59.0988 64.6305 58.898 64.7901 58.7491L65.3667 58.2108C65.538 58.3619 65.7576 58.4468 65.986 58.4501H66.0201C66.2739 58.4455 66.5154 58.3404 66.6916 58.1577C66.8678 57.975 66.9643 57.7298 66.9598 57.476C66.9552 57.2221 66.8501 56.9805 66.6675 56.8043C66.4848 56.628 66.2397 56.5315 65.986 56.536H65.9518C65.6988 56.5461 65.46 56.656 65.2879 56.8418C65.1158 57.0276 65.0243 57.2741 65.0336 57.5272C65.042 57.7121 65.1077 57.8897 65.2215 58.0356L64.6364 58.5825C64.4372 58.7687 64.3109 59.0199 64.2804 59.2909C64.2499 59.5619 64.317 59.8349 64.4698 60.0607L65.7511 61.9192C65.6436 62.0104 65.5579 62.1245 65.5002 62.2531C65.4426 62.3818 65.4145 62.5217 65.4179 62.6626ZM65.9774 56.7667H66.0031C66.1922 56.7701 66.3724 56.8481 66.5044 56.9837C66.6363 57.1193 66.7094 57.3016 66.7077 57.4908C66.7061 57.68 66.6297 57.861 66.4953 57.9942C66.361 58.1274 66.1794 58.2021 65.9902 58.2021C65.8011 58.2021 65.6195 58.1274 65.4852 57.9942C65.3508 57.861 65.2744 57.68 65.2728 57.4908C65.2711 57.3016 65.3442 57.1193 65.4761 56.9837C65.6081 56.8481 65.7883 56.7701 65.9774 56.7667ZM66.349 61.8936H66.3746C66.4705 61.8919 66.5658 61.9091 66.6551 61.9443C66.7443 61.9795 66.8258 62.0319 66.8948 62.0985C66.9638 62.1651 67.019 62.2447 67.0573 62.3327C67.0955 62.4207 67.1161 62.5154 67.1178 62.6113C67.1195 62.7073 67.1022 62.8026 67.0671 62.8919C67.0319 62.9812 66.9796 63.0627 66.9129 63.1317C66.8463 63.2007 66.7667 63.2559 66.6788 63.2942C66.5908 63.3325 66.4962 63.353 66.4003 63.3547H66.3746C66.2787 63.3564 66.1834 63.3392 66.0942 63.304C66.0049 63.2689 65.9235 63.2165 65.8545 63.1498C65.7855 63.0832 65.7302 63.0036 65.692 62.9156C65.6537 62.8276 65.6332 62.7329 65.6315 62.637C65.6298 62.541 65.647 62.4457 65.6822 62.3564C65.7173 62.2671 65.7697 62.1857 65.8363 62.1166C65.903 62.0476 65.9825 61.9924 66.0705 61.9541C66.1585 61.9158 66.2531 61.8953 66.349 61.8936Z" fill="#6E807F"/>
<path d="M74.9888 57.1988H75.0273C75.2552 57.1889 75.4748 57.1102 75.6571 56.9729C75.8393 56.8356 75.9756 56.6462 76.048 56.4297L83.0054 56.9211C83.1736 56.9346 83.3428 56.9148 83.5033 56.8627C83.6638 56.8107 83.8125 56.7274 83.9407 56.6177L89.0018 52.3966C89.1012 52.3139 89.2205 52.2586 89.3478 52.2361C89.4752 52.2136 89.6062 52.2248 89.7279 52.2685L90.0568 52.3795C90.1967 52.4285 90.319 52.518 90.408 52.6367C90.497 52.7554 90.5487 52.8979 90.5565 53.046L90.817 57.6773C90.5626 57.7572 90.3453 57.9257 90.2045 58.1522C90.0637 58.3787 90.0087 58.6482 90.0495 58.9118C90.0903 59.1754 90.2242 59.4156 90.4269 59.5889C90.6297 59.7621 90.8877 59.857 91.1544 59.8562H91.1971C91.4192 59.8478 91.6338 59.7739 91.8141 59.6438C91.9943 59.5137 92.1321 59.3333 92.2102 59.1251C92.2882 58.9169 92.303 58.6904 92.2527 58.4738C92.2024 58.2572 92.0892 58.0604 91.9274 57.908C91.7725 57.7727 91.5834 57.6825 91.3807 57.6474L91.1202 53.0161C91.1107 52.7545 91.0212 52.502 90.8639 52.2927C90.7066 52.0834 90.489 51.9274 90.2404 51.8455L89.9158 51.7301C89.7003 51.6558 89.4694 51.6379 89.2451 51.6783C89.0208 51.7187 88.8105 51.816 88.6345 51.9608L83.5692 56.1862C83.4206 56.3081 83.2313 56.3691 83.0396 56.3571L76.095 55.8786C76.0493 55.6231 75.9159 55.3916 75.7179 55.2239C75.5199 55.0563 75.2696 54.9629 75.0102 54.96H74.9717C74.6851 54.9819 74.4176 55.1126 74.224 55.3252C74.0304 55.5378 73.9253 55.8164 73.9302 56.1039C73.9351 56.3915 74.0497 56.6663 74.2504 56.8722C74.4511 57.0781 74.7229 57.1995 75.0102 57.2116L74.9888 57.1988ZM74.9888 55.5155C75.1282 55.5277 75.258 55.5917 75.3525 55.6949C75.447 55.7981 75.4995 55.933 75.4995 56.073C75.4995 56.213 75.447 56.3479 75.3525 56.4511C75.258 56.5543 75.1282 56.6183 74.9888 56.6305C74.8494 56.6183 74.7197 56.5543 74.6251 56.4511C74.5306 56.3479 74.4782 56.213 74.4782 56.073C74.4782 55.933 74.5306 55.7981 74.6251 55.6949C74.7197 55.5917 74.8494 55.5277 74.9888 55.5155Z" fill="#6E807F"/>
<path d="M92.4576 61.9407C92.4328 61.6524 92.2981 61.3847 92.0815 61.1929C91.8648 61.0011 91.5827 60.9 91.2936 60.9104C91.0045 60.9208 90.7305 61.042 90.5282 61.2489C90.3259 61.4558 90.2108 61.7326 90.2068 62.0219C90.2195 62.2719 90.3156 62.5105 90.4797 62.6995C90.6438 62.8884 90.8666 63.0169 91.1123 63.0644L91.2532 65.6492C91.2612 65.7649 91.2406 65.8808 91.1934 65.9867L91.0909 66.2302C91.0253 66.2112 90.9581 66.1984 90.8902 66.1917C90.6035 66.2136 90.336 66.3443 90.1424 66.5569C89.9489 66.7695 89.8438 67.0481 89.8487 67.3356C89.8536 67.6232 89.9681 67.898 90.1689 68.1039C90.3696 68.3098 90.6414 68.4312 90.9286 68.4433H90.9671C91.1146 68.4383 91.2597 68.4043 91.3941 68.3432C91.5285 68.2821 91.6495 68.1951 91.7503 68.0872C91.851 67.9792 91.9295 67.8525 91.9813 67.7142C92.033 67.5759 92.057 67.4288 92.0519 67.2812C92.0493 67.1158 92.0096 66.9532 91.9357 66.8053C91.8618 66.6574 91.7555 66.528 91.6248 66.4267L91.7273 66.1875C91.8073 66.0016 91.8438 65.8 91.8341 65.5979L91.6889 63.0345C91.918 62.9598 92.1167 62.8128 92.2553 62.6156C92.3939 62.4185 92.4649 62.1817 92.4576 61.9407ZM90.9457 67.8793C90.7988 67.8786 90.6577 67.8222 90.5507 67.7215C90.4437 67.6208 90.3789 67.4833 90.3691 67.3367C90.3645 67.189 90.4185 67.0454 90.5193 66.9374C90.6202 66.8293 90.7596 66.7655 90.9073 66.76C91.0557 66.76 91.198 66.8189 91.3029 66.9239C91.4078 67.0289 91.4668 67.1712 91.4668 67.3196C91.4668 67.4681 91.4078 67.6104 91.3029 67.7154C91.198 67.8204 91.0557 67.8793 90.9073 67.8793H90.9457ZM91.3515 62.5389C91.2121 62.5267 91.0823 62.4626 90.9878 62.3594C90.8932 62.2562 90.8408 62.1213 90.8408 61.9813C90.8408 61.8414 90.8932 61.7065 90.9878 61.6032C91.0823 61.5 91.2121 61.436 91.3515 61.4238C91.4909 61.436 91.6206 61.5 91.7151 61.6032C91.8097 61.7065 91.8621 61.8414 91.8621 61.9813C91.8621 62.1213 91.8097 62.2562 91.7151 62.3594C91.6206 62.4626 91.4909 62.5267 91.3515 62.5389Z" fill="#6E807F"/>
<path d="M62.2023 57.2152H62.2408C62.5387 57.203 62.8198 57.0736 63.023 56.8552C63.2261 56.6368 63.3348 56.347 63.3256 56.0488C63.316 55.9494 63.293 55.8516 63.2573 55.7583L65.7472 54.1904C65.8916 54.1001 66.0623 54.0614 66.2314 54.0809C66.4006 54.1003 66.5581 54.1765 66.6783 54.2972L67.8784 55.5191C68.1073 55.747 68.4105 55.885 68.7326 55.9079L69.8303 55.9848C69.8703 56.2428 70.0021 56.4778 70.2014 56.6465C70.4006 56.8152 70.654 56.9064 70.9151 56.9033H70.9578C71.1055 56.899 71.2508 56.8649 71.385 56.8033C71.5193 56.7416 71.6398 56.6536 71.7394 56.5444C71.8563 56.4225 71.9443 56.2758 71.9967 56.1152C72.0492 55.9546 72.0647 55.7842 72.0422 55.6167C72.0197 55.4493 71.9598 55.289 71.8668 55.148C71.7738 55.0069 71.6503 54.8886 71.5053 54.8019C71.3603 54.7152 71.1976 54.6624 71.0294 54.6473C70.8612 54.6321 70.6917 54.6552 70.5336 54.7147C70.3755 54.7741 70.2328 54.8685 70.1162 54.9908C69.9996 55.113 69.9121 55.26 69.8602 55.4208L68.7711 55.3439C68.5902 55.3293 68.4206 55.2505 68.2927 55.1217L67.0926 53.8998C66.8809 53.6873 66.6034 53.553 66.3054 53.5189C66.0075 53.4847 65.7068 53.5528 65.4525 53.7119L62.9796 55.267C62.8728 55.1641 62.7461 55.0842 62.6073 55.032C62.4685 54.9798 62.3205 54.9566 62.1724 54.9637C62.0245 54.9676 61.8788 55.001 61.7439 55.0619C61.6089 55.1228 61.4875 55.2099 61.3866 55.3183C61.2369 55.479 61.1373 55.6799 61.1001 55.8964C61.063 56.1128 61.0898 56.3355 61.1773 56.5369C61.2649 56.7384 61.4093 56.9099 61.5929 57.0304C61.7765 57.1509 61.9913 57.2151 62.2109 57.2152H62.2023ZM61.7752 55.7071C61.8251 55.652 61.8857 55.6077 61.9532 55.5769C62.0208 55.546 62.0939 55.5293 62.1682 55.5276C62.309 55.5286 62.4445 55.5819 62.5483 55.6771C62.6033 55.727 62.6476 55.7876 62.6784 55.8552C62.7093 55.9228 62.726 55.9959 62.7277 56.0702C62.7311 56.2183 62.6762 56.3619 62.5747 56.4698C62.4732 56.5778 62.3333 56.6414 62.1852 56.647C62.0388 56.6473 61.8976 56.5918 61.7906 56.4919C61.6835 56.3919 61.6184 56.2549 61.6087 56.1087C61.6102 56.0327 61.6273 55.9579 61.6589 55.8888C61.6905 55.8197 61.7359 55.7579 61.7923 55.7071H61.7752Z" fill="#6E807F"/>
<path d="M54.6469 77.9536H54.6854C54.8778 77.9526 55.0666 77.9011 55.2328 77.8041C55.399 77.7072 55.5369 77.5682 55.6325 77.4012C55.7281 77.2341 55.7781 77.0449 55.7775 76.8524C55.777 76.6599 55.7258 76.4709 55.6292 76.3045L58.6744 73.4719C58.8484 73.5911 59.053 73.6578 59.2638 73.6641H59.3023C59.5889 73.6422 59.8564 73.5116 60.05 73.299C60.2436 73.0864 60.3487 72.8078 60.3438 72.5202C60.3389 72.2327 60.2243 71.9579 60.0236 71.752C59.8228 71.5461 59.5511 71.4247 59.2638 71.4126H59.2254C59.0338 71.4169 58.8467 71.4707 58.6821 71.5688C58.5175 71.6668 58.381 71.8059 58.286 71.9723C58.191 72.1387 58.1407 72.3269 58.1399 72.5185C58.1391 72.7102 58.1879 72.8988 58.2815 73.066L55.2406 75.8943C55.0554 75.7657 54.8338 75.6998 54.6085 75.7063C54.3106 75.7114 54.0269 75.8347 53.8198 76.049C53.6128 76.2633 53.4993 76.5512 53.5044 76.8492C53.5095 77.1472 53.6328 77.431 53.847 77.6381C54.0613 77.8452 54.349 77.9587 54.6469 77.9536ZM59.2467 71.9723C59.3951 71.9723 59.5374 72.0312 59.6424 72.1362C59.7473 72.2412 59.8062 72.3835 59.8062 72.532C59.8062 72.6804 59.7473 72.8227 59.6424 72.9277C59.5374 73.0327 59.3951 73.0916 59.2467 73.0916C59.0983 73.0916 58.956 73.0327 58.8511 72.9277C58.7462 72.8227 58.6872 72.6804 58.6872 72.532C58.6872 72.3835 58.7462 72.2412 58.8511 72.1362C58.956 72.0312 59.0983 71.9723 59.2467 71.9723ZM54.2369 76.4497C54.2874 76.3954 54.3481 76.3517 54.4155 76.3209C54.4829 76.2901 54.5558 76.2729 54.6298 76.2703H54.6512C54.7923 76.27 54.9282 76.3235 55.0313 76.4198C55.1389 76.5228 55.2018 76.6639 55.2064 76.8129C55.2101 76.8864 55.1987 76.96 55.173 77.0291C55.1473 77.0981 55.1078 77.1612 55.0569 77.2145C54.9556 77.3219 54.8159 77.3848 54.6683 77.3896C54.5212 77.388 54.3801 77.3314 54.2727 77.231C54.1652 77.1306 54.0991 76.9937 54.0874 76.847C54.0841 76.7003 54.1376 76.5579 54.2369 76.4497Z" fill="#6E807F"/>
<path d="M57.3296 83.1277C57.1015 83.1369 56.8816 83.2155 56.6993 83.3529C56.5169 83.4902 56.3807 83.68 56.3088 83.8967L55.3692 83.8369C55.2106 83.8209 55.0611 83.7551 54.9421 83.6489L51.8799 80.9274C51.8068 80.8645 51.7469 80.7877 51.7039 80.7014C51.6608 80.6151 51.6353 80.5211 51.629 80.4248C51.6226 80.3286 51.6355 80.232 51.6668 80.1408C51.6982 80.0496 51.7474 79.9655 51.8115 79.8935C51.9828 80.0069 52.1828 80.0692 52.3881 80.073H52.4266C52.5743 80.0686 52.7196 80.0349 52.8543 79.974C52.9889 79.9131 53.1102 79.8261 53.2111 79.7181C53.3119 79.61 53.3904 79.4831 53.4419 79.3445C53.4935 79.206 53.5171 79.0586 53.5114 78.9109C53.5073 78.7635 53.4739 78.6184 53.413 78.4842C53.3521 78.3499 53.2651 78.2292 53.1569 78.129C52.9367 77.9281 52.6477 77.8195 52.3497 77.8257C52.0513 77.8357 51.7692 77.9637 51.565 78.1815C51.3608 78.3994 51.2514 78.6893 51.2606 78.9878C51.272 79.1661 51.3262 79.339 51.4186 79.4919C51.2979 79.6174 51.2041 79.7661 51.1427 79.929C51.0814 80.0919 51.0539 80.2656 51.0619 80.4395C51.0699 80.6134 51.1132 80.7839 51.1892 80.9405C51.2652 81.0971 51.3724 81.2366 51.504 81.3504L54.5492 84.0762C54.7673 84.2703 55.0438 84.386 55.3351 84.4051L56.2832 84.4692C56.3307 84.7243 56.4653 84.9549 56.664 85.1216C56.8626 85.2884 57.113 85.381 57.3723 85.3835H57.4108C57.5635 85.3856 57.7152 85.3567 57.8564 85.2984C57.9977 85.2401 58.1256 85.1537 58.2325 85.0444C58.3393 84.9351 58.4228 84.8052 58.478 84.6627C58.5331 84.5201 58.5587 84.3678 58.5532 84.2151C58.5477 84.0623 58.5112 83.9123 58.446 83.7741C58.3807 83.6358 58.288 83.5123 58.1736 83.411C58.0592 83.3097 57.9253 83.2328 57.7803 83.1848C57.6352 83.1368 57.4818 83.1188 57.3296 83.132V83.1277ZM51.961 78.5691C52.0104 78.5146 52.0703 78.4706 52.1371 78.4397C52.2038 78.4089 52.2762 78.3919 52.3497 78.3896C52.4909 78.3885 52.6272 78.4421 52.7298 78.5392C52.8386 78.6417 52.903 78.7828 52.9092 78.9322C52.9126 79.0804 52.8577 79.2239 52.7562 79.3319C52.6547 79.4398 52.5148 79.5034 52.3668 79.509C52.2191 79.5079 52.0779 79.4484 51.9739 79.3436C51.8699 79.2387 51.8115 79.097 51.8115 78.9493C51.8098 78.8792 51.8221 78.8094 51.8478 78.7441C51.8735 78.6788 51.912 78.6193 51.961 78.5691ZM57.3894 84.811C57.241 84.811 57.0987 84.752 56.9938 84.6471C56.8889 84.5421 56.8299 84.3998 56.8299 84.2513C56.8299 84.1029 56.8889 83.9605 56.9938 83.8556C57.0987 83.7506 57.241 83.6917 57.3894 83.6917C57.5378 83.6917 57.6801 83.7506 57.785 83.8556C57.89 83.9605 57.9489 84.1029 57.9489 84.2513C57.9489 84.3998 57.89 84.5421 57.785 84.6471C57.6801 84.752 57.5378 84.811 57.3894 84.811Z" fill="#6E807F"/>
<path d="M73.357 81.0849C73.2098 81.0894 73.0649 81.1231 72.9307 81.1839C72.7966 81.2448 72.6758 81.3317 72.5754 81.4395C72.3722 81.6583 72.2633 81.9484 72.2722 82.247C72.2765 82.3953 72.3104 82.5413 72.372 82.6764C72.4336 82.8114 72.5217 82.9327 72.631 83.0331C72.6893 83.0793 72.7523 83.1194 72.8189 83.1527L72.4516 84.3789C72.4028 84.541 72.3009 84.6819 72.1621 84.7788C72.0234 84.8757 71.856 84.923 71.6871 84.9129L61.8639 84.2678C61.8344 84.0359 61.7328 83.8192 61.5735 83.6483C61.411 83.4967 61.2073 83.3964 60.9881 83.3602C60.7689 83.324 60.5438 83.3533 60.3412 83.4446C60.1386 83.5359 59.9675 83.6851 59.8493 83.8733C59.7312 84.0616 59.6713 84.2806 59.6772 84.5028C59.6895 84.8016 59.8183 85.0838 60.0359 85.2889C60.2423 85.4845 60.5161 85.5932 60.8004 85.5922H60.8431C61.0716 85.5842 61.292 85.5061 61.4746 85.3685C61.6572 85.231 61.7931 85.0406 61.8639 84.8232L71.6871 85.4683H71.7768C72.06 85.4732 72.3369 85.384 72.5641 85.2147C72.7913 85.0454 72.956 84.8056 73.0324 84.5327L73.3955 83.3193H73.4339H73.4723C73.6203 83.3154 73.766 83.282 73.9009 83.2211C74.0358 83.1602 74.1573 83.0731 74.2582 82.9647C74.4614 82.7459 74.5704 82.4558 74.5614 82.1572C74.5561 82.0097 74.5217 81.8646 74.4601 81.7305C74.3986 81.5963 74.3111 81.4756 74.2027 81.3754C74.0909 81.2689 73.9575 81.1879 73.8116 81.1377C73.6656 81.0876 73.5106 81.0696 73.357 81.0849ZM73.7841 82.593C73.6827 82.7004 73.543 82.7634 73.3955 82.7682C73.2472 82.7731 73.1029 82.7194 72.994 82.6187C72.9395 82.5685 72.8959 82.5078 72.8658 82.4402C72.8357 82.3726 72.8197 82.2996 72.8189 82.2256C72.8148 82.1526 72.826 82.0796 72.8517 82.0112C72.8775 81.9427 72.9172 81.8805 72.9684 81.8283C73.0177 81.7737 73.0776 81.7297 73.1444 81.6989C73.2112 81.6681 73.2835 81.6511 73.357 81.6488C73.4992 81.6496 73.6361 81.7028 73.7414 81.7984C73.849 81.9014 73.9119 82.0425 73.9165 82.1914C73.9332 82.3333 73.8933 82.4761 73.8055 82.5888L73.7841 82.593Z" fill="#6E807F"/>
<path d="M80.9134 73.9462C80.6538 73.9569 80.4062 74.0587 80.2141 74.2337C80.022 74.4086 79.8976 74.6457 79.8627 74.9032L76.0188 75.3305C75.7599 75.3538 75.5142 75.4554 75.3143 75.6218C75.1144 75.7881 74.9699 76.0114 74.8999 76.2618L74.4386 77.7999C74.413 77.7978 74.3873 77.7978 74.3617 77.7999C74.0751 77.8214 73.8075 77.9515 73.6137 78.1638C73.4198 78.376 73.3142 78.6543 73.3186 78.9418C73.323 79.2292 73.4369 79.5042 73.6371 79.7104C73.8374 79.9167 74.1088 80.0386 74.3959 80.0514H74.4386C74.7369 80.0403 75.0187 79.9113 75.2221 79.6926C75.4254 79.474 75.5338 79.1835 75.5234 78.8851C75.5189 78.7378 75.4852 78.5929 75.4244 78.4587C75.3636 78.3245 75.2767 78.2037 75.1689 78.1032C75.1095 78.0564 75.045 78.0162 74.9767 77.9836L75.438 76.437C75.4804 76.2952 75.5639 76.1691 75.6779 76.0748C75.792 75.9805 75.9314 75.9222 76.0786 75.9072L79.9225 75.48C80.002 75.6929 80.1441 75.8767 80.3302 76.0071C80.5162 76.1376 80.7374 76.2085 80.9646 76.2106H81.0031C81.3014 76.1994 81.5831 76.0704 81.7865 75.8517C81.9899 75.6331 82.0983 75.3427 82.0879 75.0442C82.0756 74.7435 81.9455 74.4597 81.7257 74.2543C81.5059 74.0488 81.2141 73.9381 80.9134 73.9462ZM74.8144 79.2824C74.7637 79.3361 74.7029 79.3792 74.6355 79.4093C74.568 79.4393 74.4953 79.4557 74.4215 79.4576C74.2758 79.455 74.1355 79.4022 74.0243 79.308C73.9121 79.212 73.8423 79.0755 73.8303 78.9282C73.8183 78.7809 73.865 78.6349 73.9602 78.5219C74.0104 78.4673 74.0711 78.4232 74.1385 78.3924C74.206 78.3616 74.279 78.3446 74.3532 78.3425C74.4949 78.3429 74.6311 78.398 74.7333 78.4963C74.7882 78.5454 74.8324 78.6052 74.8633 78.6721C74.8941 78.7389 74.9109 78.8114 74.9127 78.8851C74.9292 79.0251 74.8943 79.1663 74.8144 79.2824ZM80.986 75.6295C80.8376 75.6295 80.6953 75.5706 80.5903 75.4656C80.4854 75.3606 80.4265 75.2183 80.4265 75.0699C80.4265 74.9214 80.4854 74.7791 80.5903 74.6741C80.6953 74.5691 80.8376 74.5102 80.986 74.5102C81.1343 74.5102 81.2767 74.5691 81.3816 74.6741C81.4865 74.7791 81.5455 74.9214 81.5455 75.0699C81.5455 75.2183 81.4865 75.3606 81.3816 75.4656C81.2767 75.5706 81.1343 75.6295 80.986 75.6295Z" fill="#6E807F"/>
<path d="M64.564 83.0974C64.6968 83.1629 64.843 83.1965 64.9911 83.1956C65.0989 83.1963 65.206 83.1775 65.3071 83.1401C65.4625 83.0846 65.6005 82.989 65.707 82.8629C65.8135 82.7369 65.8848 82.5849 65.9136 82.4223L69.7276 82.6701H69.8044C70.0503 82.6702 70.2895 82.5908 70.4865 82.4437C70.6836 82.2967 70.8278 82.0898 70.8978 81.8541L71.3249 80.4998C71.3767 80.5128 71.4296 80.5214 71.4829 80.5254C71.5903 80.5254 71.6971 80.5081 71.799 80.4741C72.0317 80.3857 72.2208 80.2099 72.326 79.9842C72.4313 79.7585 72.4445 79.5007 72.3627 79.2654C72.281 79.0302 72.1108 78.8361 71.8883 78.7243C71.6658 78.6126 71.4086 78.592 71.1711 78.6669C71.0483 78.7037 70.9341 78.7649 70.8354 78.8469C70.7368 78.929 70.6557 79.03 70.5971 79.1441C70.5385 79.2582 70.5035 79.383 70.4943 79.511C70.485 79.639 70.5017 79.7675 70.5433 79.8888C70.5878 80.0121 70.6575 80.1248 70.748 80.2197C70.8384 80.3146 70.9476 80.3896 71.0686 80.44L70.6415 81.7943C70.5799 81.992 70.4539 82.1633 70.2836 82.281C70.1133 82.3987 69.9085 82.456 69.7019 82.4437L65.8922 82.1959C65.8935 82.1036 65.882 82.0116 65.8581 81.9225C65.7741 81.6842 65.599 81.489 65.3712 81.3799C65.2587 81.3236 65.136 81.2907 65.0104 81.2834C64.8849 81.276 64.7591 81.2943 64.6408 81.3372C64.4621 81.3985 64.3056 81.5117 64.1914 81.6623C64.0772 81.8129 64.0103 81.9941 63.9993 82.1829C63.9883 82.3716 64.0337 82.5593 64.1297 82.7222C64.2257 82.885 64.3679 83.0156 64.5383 83.0974H64.564ZM70.7526 79.8034C70.6898 79.6209 70.7017 79.421 70.7857 79.2473C70.8697 79.0736 71.019 78.9402 71.201 78.8763C71.2775 78.8477 71.3586 78.8332 71.4402 78.8336C71.5744 78.8331 71.7061 78.8697 71.8209 78.9392C71.9357 79.0087 72.0291 79.1085 72.0909 79.2277C72.1527 79.3468 72.1805 79.4807 72.1712 79.6146C72.162 79.7485 72.116 79.8773 72.0384 79.9868C71.9607 80.0963 71.8544 80.1822 71.7312 80.2353C71.6079 80.2883 71.4724 80.3063 71.3396 80.2874C71.2067 80.2684 71.0817 80.2132 70.9781 80.1279C70.8746 80.0425 70.7965 79.9302 70.7526 79.8034ZM64.3163 81.9396C64.359 81.8527 64.4189 81.7753 64.4923 81.7122C64.5657 81.649 64.6511 81.6014 64.7434 81.5721C64.8199 81.5439 64.9009 81.5294 64.9825 81.5294C65.0933 81.5301 65.2026 81.5549 65.3028 81.602C65.4322 81.6655 65.5399 81.7658 65.6124 81.8904C65.6849 82.0149 65.719 82.1581 65.7103 82.302C65.7016 82.4458 65.6506 82.5839 65.5637 82.6988C65.4767 82.8138 65.3577 82.9004 65.2217 82.9478C65.1318 82.9801 65.0364 82.994 64.9411 82.9889C64.8457 82.9837 64.7524 82.9596 64.6665 82.9179C64.58 82.876 64.5026 82.8174 64.4388 82.7454C64.375 82.6735 64.3261 82.5897 64.2947 82.4988C64.2634 82.4079 64.2503 82.3117 64.2562 82.2158C64.2621 82.1198 64.2868 82.0259 64.3291 81.9396H64.3163Z" fill="#6E807F"/>
<path d="M73.4565 75.1853C73.6161 75.2991 73.8072 75.3603 74.0032 75.3605C74.0586 75.3648 74.1143 75.3648 74.1698 75.3605C74.3578 75.3318 74.5332 75.2482 74.6739 75.1201C74.8146 74.9921 74.9144 74.8252 74.9606 74.6406C75.0068 74.4561 74.9975 74.2619 74.9338 74.0826C74.8701 73.9033 74.7548 73.7468 74.6025 73.6328C74.4502 73.5188 74.2676 73.4524 74.0776 73.4419C73.8877 73.4314 73.6988 73.4773 73.5349 73.5738C73.3709 73.6703 73.2391 73.8131 73.156 73.9843C73.0729 74.1554 73.0423 74.3474 73.0679 74.5359L69.1813 75.5058C68.9621 75.5593 68.7639 75.6768 68.6117 75.8435C68.4596 76.0101 68.3605 76.2183 68.3271 76.4414L68.0623 78.176C67.997 78.1696 67.9312 78.1696 67.8658 78.176C67.6279 78.2153 67.4136 78.3429 67.2657 78.5335C67.1179 78.7241 67.0474 78.9635 67.0685 79.2038C67.0895 79.4441 67.2005 79.6676 67.3793 79.8296C67.558 79.9915 67.7913 80.0799 68.0324 80.0772C68.0864 80.0812 68.1407 80.0812 68.1947 80.0772C68.4435 80.0334 68.6649 79.8929 68.8105 79.6864C68.9561 79.4798 69.0142 79.2241 68.972 78.9749C68.9408 78.7971 68.8595 78.6319 68.7377 78.4987C68.6159 78.3655 68.4587 78.2699 68.2844 78.223L68.5492 76.5141C68.5784 76.3354 68.659 76.1692 68.7811 76.0357C68.9032 75.9021 69.0616 75.8071 69.2368 75.7621L73.1319 74.7923C73.2017 74.9508 73.314 75.0869 73.4565 75.1853ZM73.4095 73.9848C73.5218 73.8264 73.6923 73.7188 73.8836 73.6857C73.9248 73.6813 73.9663 73.6813 74.0075 73.6857C74.1793 73.6863 74.3455 73.7474 74.4767 73.8584C74.6079 73.9693 74.6959 74.123 74.725 74.2924C74.7423 74.3872 74.7403 74.4845 74.719 74.5785C74.6977 74.6725 74.6576 74.7612 74.6011 74.8393C74.5466 74.9178 74.477 74.9846 74.3964 75.036C74.3158 75.0873 74.2258 75.1222 74.1316 75.1385C74.0375 75.1548 73.941 75.1522 73.8478 75.1309C73.7547 75.1096 73.6667 75.07 73.5889 75.0144C73.5093 74.9601 73.4417 74.8899 73.3903 74.8083C73.3389 74.7268 73.3047 74.6355 73.29 74.5402C73.2713 74.4444 73.2723 74.3457 73.2928 74.2503C73.3134 74.1548 73.3531 74.0645 73.4095 73.9848ZM68.7499 78.9749C68.7809 79.165 68.7365 79.3597 68.6261 79.5175C68.5715 79.596 68.5018 79.6629 68.4212 79.7142C68.3405 79.7655 68.2505 79.8003 68.1563 79.8166C68.0612 79.8338 67.9636 79.8321 67.8692 79.8116C67.7748 79.7911 67.6853 79.7521 67.606 79.6969C67.5266 79.6418 67.459 79.5715 67.4068 79.4901C67.3547 79.4088 67.3191 79.3179 67.3021 79.2227C67.285 79.1279 67.2871 79.0306 67.3084 78.9367C67.3297 78.8427 67.3697 78.754 67.4259 78.6759C67.4807 78.5975 67.5504 78.5308 67.631 78.4795C67.7117 78.4282 67.8016 78.3933 67.8957 78.3768H68.0196C68.1922 78.3748 68.36 78.4336 68.4935 78.543C68.627 78.6524 68.7178 78.8053 68.7499 78.9749Z" fill="#6E807F"/>
<path d="M85.8633 70.8872C85.6099 70.8964 85.3704 71.0055 85.197 71.1905C85.037 71.3655 84.9485 71.5942 84.9493 71.8314L78.1542 72.562C78.1164 72.3778 78.0259 72.2086 77.8937 72.0749C77.7165 71.9094 77.4828 71.8177 77.2403 71.8186H77.2061C76.9531 71.8275 76.7139 71.9364 76.541 72.1214C76.3681 72.3064 76.2755 72.5524 76.2836 72.8055C76.2928 73.059 76.4018 73.2985 76.5868 73.472C76.763 73.6365 76.995 73.7281 77.236 73.7283H77.2702C77.5157 73.7206 77.7486 73.6178 77.9199 73.4417C78.0912 73.2656 78.1874 73.0299 78.1884 72.7841L84.9835 72.0578C85.0228 72.2693 85.1358 72.46 85.3023 72.5961C85.4689 72.7322 85.6782 72.8049 85.8932 72.8012H85.9188C86.0444 72.7994 86.1683 72.7719 86.2828 72.7204C86.3974 72.669 86.5002 72.5947 86.5851 72.5022C86.6708 72.4108 86.7376 72.3034 86.7816 72.186C86.8256 72.0687 86.8459 71.9438 86.8414 71.8186C86.8382 71.6928 86.8097 71.5689 86.7576 71.4544C86.7055 71.3399 86.6309 71.2371 86.5381 71.1521C86.3643 70.9833 86.1311 70.8897 85.8889 70.8915L85.8633 70.8872ZM77.2616 73.5019C77.1181 73.5056 76.9766 73.4669 76.8549 73.3906C76.7332 73.3143 76.6367 73.2039 76.5775 73.073C76.5182 72.9422 76.4989 72.7967 76.5218 72.6549C76.5447 72.5131 76.6089 72.3812 76.7064 72.2757C76.7714 72.2053 76.8499 72.1485 76.9372 72.1089C77.0245 72.0693 77.1188 72.0476 77.2146 72.045H77.2403C77.4246 72.044 77.6021 72.1145 77.7357 72.2415C77.8067 72.3064 77.8641 72.3847 77.9044 72.472C77.9448 72.5593 77.9673 72.6538 77.9706 72.75C77.9734 72.8459 77.9574 72.9415 77.9233 73.0312C77.8892 73.1209 77.8377 73.2031 77.7719 73.2729C77.706 73.3427 77.6271 73.3989 77.5395 73.4382C77.452 73.4775 77.3575 73.4991 77.2616 73.5019ZM86.6235 71.8186C86.6293 72.0121 86.5586 72.2 86.4266 72.3416C86.2947 72.4832 86.1122 72.567 85.9188 72.5748H85.8932C85.7046 72.5738 85.5237 72.4999 85.3884 72.3685C85.253 72.2371 85.1738 72.0584 85.1672 71.8698C85.163 71.7742 85.1783 71.6787 85.2121 71.5891C85.2458 71.4996 85.2974 71.4177 85.3636 71.3486C85.4284 71.2776 85.5068 71.2202 85.594 71.1798C85.6813 71.1395 85.7758 71.117 85.8719 71.1136H85.9188C86.1027 71.1152 86.2793 71.1853 86.4143 71.3102C86.4812 71.3767 86.5342 71.456 86.5702 71.5433C86.6061 71.6306 86.6243 71.7242 86.6235 71.8186Z" fill="#6E807F"/>
<path d="M88.8707 56.3399C89.1237 56.331 89.3629 56.2221 89.5358 56.0371C89.7087 55.8521 89.8013 55.6061 89.7932 55.353C89.7844 55.1059 89.6803 54.8718 89.5027 54.6998C89.3252 54.5277 89.088 54.4311 88.8408 54.4302H88.8066C88.6181 54.4373 88.436 54.5 88.283 54.6104C88.13 54.7209 88.0131 54.874 87.9469 55.0507C87.8808 55.2274 87.8683 55.4197 87.9111 55.6035C87.9538 55.7873 88.0499 55.9543 88.1873 56.0836H88.213L86.5473 58.5402C86.47 58.6343 86.3746 58.7118 86.2667 58.7684C86.1589 58.8249 86.0408 58.8591 85.9195 58.8692L81.6485 58.9418C81.6168 58.7179 81.5058 58.5128 81.3357 58.3638C81.1656 58.2149 80.9478 58.1319 80.7217 58.13H80.6875C80.4345 58.139 80.1954 58.2478 80.0224 58.4328C79.8495 58.6178 79.7569 58.8638 79.765 59.117C79.7739 59.3648 79.8786 59.5995 80.057 59.7717C80.2355 59.9438 80.4738 60.0399 80.7217 60.0398H80.7559C80.9837 60.0296 81.2002 59.9376 81.3657 59.7806C81.5313 59.6237 81.6347 59.4123 81.657 59.1853L85.9494 59.0999C86.0983 59.0911 86.244 59.053 86.3781 58.9878C86.5122 58.9225 86.6321 58.8314 86.7309 58.7196L88.4137 56.2417C88.5448 56.3143 88.691 56.3553 88.8408 56.3613L88.8707 56.3399ZM88.1105 55.4085C88.106 55.3132 88.1207 55.218 88.1538 55.1285C88.1868 55.0389 88.2374 54.9569 88.3027 54.8873C88.4372 54.747 88.6209 54.6643 88.8152 54.6566H88.8408C89.0294 54.6576 89.2103 54.7315 89.3456 54.8629C89.481 54.9943 89.5602 55.173 89.5669 55.3616C89.5726 55.555 89.5019 55.743 89.3699 55.8846C89.238 56.0262 89.0555 56.11 88.8621 56.1178H88.8365C88.6472 56.1167 88.4657 56.0422 88.3302 55.9099C88.1948 55.7776 88.116 55.5978 88.1105 55.4085Z" fill="#6E807F"/>
<path d="M88.405 60.8305C88.336 60.6065 88.186 60.4161 87.9844 60.2966C87.7828 60.177 87.5439 60.1367 87.3142 60.1836C87.0846 60.2305 86.8806 60.3612 86.7419 60.5503C86.6033 60.7394 86.54 60.9733 86.5642 61.2065L83.6557 61.826C83.5701 61.5926 83.397 61.4017 83.1732 61.2937C82.9493 61.1857 82.6922 61.1691 82.4563 61.2474C82.2205 61.3257 82.0243 61.4927 81.9094 61.7131C81.7944 61.9336 81.7697 62.1901 81.8406 62.4284C81.9041 62.6196 82.0261 62.786 82.1894 62.9041C82.3526 63.0221 82.5488 63.0859 82.7503 63.0863C82.8505 63.0875 82.9501 63.0716 83.045 63.0393C83.1645 63.0013 83.2751 62.9398 83.3705 62.8584C83.4659 62.7769 83.544 62.6772 83.6002 62.5651C83.6792 62.405 83.7089 62.2251 83.6856 62.0481L86.5941 61.4286C86.6722 61.6659 86.8412 61.8626 87.0639 61.9755C87.1961 62.0437 87.3423 62.0803 87.491 62.0823C87.5915 62.0827 87.6913 62.0653 87.7857 62.0311C87.9057 61.9937 88.0171 61.9328 88.1133 61.852C88.2096 61.7712 88.2888 61.6721 88.3465 61.5604C88.4041 61.4487 88.4389 61.3266 88.449 61.2013C88.459 61.076 88.4441 60.95 88.405 60.8305ZM82.9766 62.8257C82.7914 62.8825 82.5916 62.8672 82.4171 62.783C82.2463 62.6929 82.1176 62.5396 82.0584 62.3558C82.0285 62.2646 82.0169 62.1684 82.0244 62.0728C82.0319 61.9771 82.0582 61.8839 82.1019 61.7985C82.1456 61.7131 82.2057 61.6372 82.2789 61.5752C82.3521 61.5132 82.4368 61.4663 82.5282 61.4372C82.5998 61.4134 82.6748 61.4018 82.7503 61.403C82.9228 61.4048 83.0891 61.4675 83.2198 61.5802C83.3505 61.6929 83.4371 61.8483 83.4642 62.0187C83.4913 62.1892 83.4572 62.3637 83.368 62.5114C83.2787 62.6591 83.1401 62.7705 82.9766 62.8257ZM87.7217 61.8174C87.6305 61.8473 87.5344 61.8589 87.4388 61.8514C87.3432 61.844 87.25 61.8176 87.1646 61.7739C87.0792 61.7302 87.0034 61.67 86.9414 61.5968C86.8794 61.5237 86.8325 61.4389 86.8034 61.3475C86.7442 61.1633 86.7604 60.9632 86.8485 60.791C86.9366 60.6189 87.0893 60.4886 87.2732 60.4289C87.3453 60.4072 87.42 60.3957 87.4953 60.3947C87.6678 60.3965 87.8342 60.4593 87.9649 60.572C88.0955 60.6847 88.1821 60.84 88.2092 61.0104C88.2363 61.1809 88.2023 61.3554 88.113 61.5032C88.0238 61.6509 87.8851 61.7622 87.7217 61.8174Z" fill="#6E807F"/>
<path d="M89.6941 70.8833C89.7444 70.8977 89.7958 70.9077 89.8479 70.9132H89.8863C90.1731 70.8909 90.4405 70.7598 90.6338 70.5468C90.8271 70.3338 90.9318 70.0549 90.9263 69.7672C90.9209 69.4796 90.8057 69.2049 90.6044 68.9994C90.4032 68.7938 90.131 68.673 89.8436 68.6616H89.8094C89.5107 68.6728 89.2285 68.8017 89.0245 69.0202C88.8205 69.2387 88.7111 69.5291 88.7203 69.828C88.7257 69.995 88.7689 70.1587 88.8465 70.3067C88.9242 70.4547 89.0344 70.5832 89.1688 70.6825L88.9083 71.2592C88.8097 71.4906 88.7791 71.7453 88.8199 71.9934C88.8608 72.2416 88.9714 72.473 89.1389 72.6606L90.1169 73.75C90.2252 73.8778 90.2874 74.0382 90.2936 74.2056C90.2998 74.373 90.2496 74.5376 90.1511 74.673C90.0526 74.8085 89.9116 74.9069 89.7505 74.9526C89.5894 74.9983 89.4176 74.9885 89.2628 74.9249L87.832 74.2499C87.6138 74.1467 87.3716 74.1053 87.1315 74.1302L85.1797 74.3353C85.0998 74.1147 84.9524 73.9249 84.7584 73.7929C84.5644 73.661 84.3337 73.5936 84.0992 73.6005C83.8125 73.6224 83.545 73.753 83.3514 73.9656C83.1578 74.1782 83.0528 74.4568 83.0577 74.7444C83.0626 75.0319 83.1771 75.3067 83.3778 75.5126C83.5786 75.7185 83.8504 75.8399 84.1376 75.852H84.176C84.435 75.8415 84.6821 75.7403 84.8741 75.5662C85.0661 75.3921 85.1909 75.156 85.2267 74.8993L87.1999 74.6771C87.3375 74.6585 87.4776 74.6824 87.6014 74.7455L89.0279 75.4162C89.2013 75.4986 89.3911 75.541 89.5831 75.5401C89.8377 75.5421 90.0874 75.4699 90.3017 75.3322C90.5159 75.1946 90.6855 74.9976 90.7897 74.7651C90.8939 74.5327 90.9281 74.275 90.8883 74.0234C90.8485 73.7718 90.7363 73.5373 90.5654 73.3484L89.5831 72.259C89.4883 72.1516 89.4259 72.0195 89.4032 71.8781C89.3805 71.7366 89.3985 71.5917 89.455 71.46L89.6941 70.8833ZM89.8265 69.2298C89.9749 69.2298 90.1172 69.2888 90.2221 69.3938C90.3271 69.4987 90.386 69.6411 90.386 69.7895C90.386 69.938 90.3271 70.0803 90.2221 70.1853C90.1172 70.2902 89.9749 70.3492 89.8265 70.3492C89.6781 70.3492 89.5358 70.2902 89.4309 70.1853C89.326 70.0803 89.267 69.938 89.267 69.7895C89.267 69.6411 89.326 69.4987 89.4309 69.3938C89.5358 69.2888 89.6781 69.2298 89.8265 69.2298Z" fill="#6E807F"/>
<path d="M62.4281 69.2035C62.2442 69.0813 62.0296 69.0132 61.8088 69.007C61.5104 69.0169 61.2279 69.1443 61.023 69.3616C60.8727 69.5228 60.773 69.7245 60.7361 69.9418C60.6993 70.1591 60.7268 70.3824 60.8154 70.5842C60.904 70.786 61.0497 70.9574 61.2346 71.0772C61.4195 71.1971 61.6355 71.2601 61.8558 71.2585H61.8942C62.193 71.2474 62.4751 71.1185 62.6792 70.9C62.8832 70.6815 62.9926 70.3911 62.9833 70.0922C62.9722 69.9217 62.921 69.7563 62.8339 69.6094L63.3079 69.1822C63.5404 68.9682 63.6878 68.6776 63.7231 68.3636C63.7584 68.0496 63.6792 67.7335 63.5001 67.4732L61.1084 63.9357C61.2759 63.7432 61.3725 63.4992 61.3824 63.2442C61.3923 62.9892 61.3147 62.7384 61.1626 62.5335C61.0105 62.3286 60.793 62.1819 60.5461 62.1176C60.2992 62.0534 60.0377 62.0754 59.8051 62.1801C59.5724 62.2849 59.3825 62.466 59.2669 62.6935C59.1512 62.9209 59.1167 63.1811 59.1691 63.4309C59.2216 63.6806 59.3577 63.905 59.5551 64.0667C59.7524 64.2285 59.9991 64.3179 60.2542 64.3202H60.2926C60.4043 64.3124 60.5139 64.2864 60.6172 64.2433L63.0132 67.7894C63.1145 67.9366 63.1591 68.1155 63.1387 68.293C63.1183 68.4705 63.0342 68.6346 62.9022 68.7549L62.4281 69.2035ZM60.2926 63.752C60.1442 63.752 60.0019 63.693 59.897 63.5881C59.7921 63.4831 59.7331 63.3408 59.7331 63.1923C59.7331 63.0439 59.7921 62.9015 59.897 62.7966C60.0019 62.6916 60.1442 62.6326 60.2926 62.6326C60.441 62.6326 60.5833 62.6916 60.6883 62.7966C60.7932 62.9015 60.8521 63.0439 60.8521 63.1923C60.8521 63.3408 60.7932 63.4831 60.6883 63.5881C60.5833 63.693 60.441 63.752 60.2926 63.752Z" fill="#6E807F"/>
<path d="M54.3129 62.4412C54.3866 62.725 54.5524 62.9763 54.7843 63.1557C55.0162 63.335 55.301 63.4324 55.5941 63.4324C55.675 63.6437 55.8177 63.8257 56.0036 63.9545C56.1896 64.0833 56.4101 64.153 56.6363 64.1544H56.6747C56.8219 64.1499 56.9668 64.1162 57.101 64.0554C57.2351 63.9945 57.3559 63.9076 57.4563 63.7998C57.6595 63.581 57.7684 63.2909 57.7595 62.9923C57.7556 62.8443 57.7222 62.6986 57.6613 62.5636C57.6005 62.4286 57.5133 62.3071 57.405 62.2062C57.1851 62.0049 56.8959 61.8962 56.5978 61.9029C56.4496 61.9076 56.3038 61.9418 56.1689 62.0034C56.034 62.065 55.9126 62.1528 55.812 62.2618C55.666 62.429 55.5724 62.6356 55.5429 62.8556C55.384 62.8439 55.2327 62.7829 55.1102 62.681C54.9877 62.5791 54.9 62.4415 54.8595 62.2874L54.7399 61.7619C54.7008 61.6086 54.7116 61.4468 54.7707 61.3C54.8299 61.1532 54.9343 61.0292 55.0688 60.9459L58.5155 58.7712C58.7223 58.9661 58.9958 59.0746 59.28 59.0746H59.3227C59.621 59.0635 59.9028 58.9344 60.1062 58.7158C60.3095 58.4971 60.4179 58.2067 60.4075 57.9082C60.39 57.6128 60.2596 57.3354 60.0434 57.1334C59.8272 56.9315 59.5416 56.8203 59.2458 56.823C58.9479 56.8342 58.6663 56.9625 58.4624 57.1801C58.2585 57.3977 58.1486 57.687 58.1567 57.9851C58.1672 58.0863 58.1916 58.1855 58.2293 58.2799L54.7399 60.4674C54.5049 60.6152 54.3228 60.8339 54.22 61.0919C54.1171 61.3498 54.0988 61.6338 54.1676 61.9029L54.3129 62.4412ZM59.2501 57.3913C59.3895 57.4035 59.5192 57.4675 59.6138 57.5707C59.7083 57.6739 59.7607 57.8088 59.7607 57.9488C59.7607 58.0888 59.7083 58.2237 59.6138 58.3269C59.5192 58.4301 59.3895 58.4941 59.2501 58.5064C59.104 58.506 58.963 58.4529 58.8529 58.3568C58.7984 58.3074 58.7544 58.2475 58.7236 58.1807C58.6927 58.1139 58.6757 58.0416 58.6735 57.968C58.6711 57.8917 58.6844 57.8156 58.7126 57.7445C58.7407 57.6735 58.7831 57.609 58.8371 57.5549C58.8911 57.5009 58.9556 57.4585 59.0267 57.4303C59.0977 57.4022 59.1737 57.3889 59.2501 57.3913Z" fill="#6E807F"/>
<path d="M87.1998 65.3891H87.2425C87.4955 65.3802 87.7347 65.2713 87.9076 65.0863C88.0805 64.9013 88.1731 64.6553 88.165 64.4022C88.1562 64.1547 88.0523 63.9201 87.8748 63.7474C87.6974 63.5747 87.4602 63.4771 87.2126 63.4751H87.1784C86.9255 63.4861 86.6866 63.5949 86.5122 63.7784C86.3955 63.8976 86.3128 64.0459 86.2727 64.2078C86.2325 64.3697 86.2364 64.5395 86.2839 64.6994C86.3314 64.8593 86.4207 65.0036 86.5427 65.1174C86.6647 65.2312 86.8149 65.3102 86.9777 65.3464L86.7343 67.1707C86.7044 67.5615 86.5385 67.9295 86.2653 68.2105C85.9922 68.4916 85.6291 68.6679 85.2394 68.7087L76.7658 69.5504C76.7312 69.3617 76.6387 69.1884 76.501 69.0548C76.3258 68.8888 76.0932 68.7969 75.8519 68.7985H75.8177C75.6921 68.8007 75.5681 68.8277 75.4529 68.8779C75.3377 68.928 75.2335 69.0004 75.1462 69.0908C74.97 69.2735 74.8736 69.5187 74.8781 69.7726C74.8826 70.0264 74.9878 70.268 75.1704 70.4443C75.353 70.6205 75.5981 70.717 75.8519 70.7125H75.8818C76.125 70.7059 76.3562 70.6051 76.5267 70.4314C76.6972 70.2576 76.7936 70.0245 76.7957 69.7811L85.2522 68.9608C85.695 68.9156 86.108 68.7171 86.4199 68.3996C86.7318 68.0821 86.9231 67.6655 86.9606 67.222L87.1998 65.3891ZM75.8903 70.4647H75.8647C75.671 70.4681 75.4839 70.3944 75.3445 70.2598C75.2051 70.1252 75.1249 69.9407 75.1215 69.7469C75.1181 69.5532 75.1918 69.366 75.3264 69.2266C75.4609 69.0872 75.6453 69.0069 75.839 69.0035H75.8647C75.9606 69.0019 76.0559 69.0191 76.1451 69.0542C76.2344 69.0894 76.3158 69.1418 76.3848 69.2085C76.4539 69.2751 76.5091 69.3547 76.5473 69.4427C76.5856 69.5307 76.6061 69.6254 76.6078 69.7213C76.6095 69.8172 76.5923 69.9126 76.5571 70.0018C76.522 70.0911 76.4696 70.1726 76.403 70.2416C76.3363 70.3107 76.2568 70.3659 76.1688 70.4042C76.0808 70.4424 75.9862 70.463 75.8903 70.4647Z" fill="#6E807F"/>
<path d="M67.6528 68.7425C67.6262 68.5311 67.5282 68.3352 67.3752 68.1871C67.2862 68.0979 67.1792 68.0289 67.0613 67.9847C66.9434 67.9404 66.8174 67.9221 66.6918 67.9307C66.503 67.9371 66.3202 67.9992 66.1666 68.1093C66.013 68.2194 65.8955 68.3725 65.8288 68.5494C65.7621 68.7262 65.7492 68.9189 65.7919 69.103C65.8345 69.2872 65.9307 69.4546 66.0683 69.5841C66.2455 69.7497 66.4792 69.8414 66.7217 69.8405H66.7559C66.9874 69.8306 67.2071 69.7359 67.3733 69.5743C67.5395 69.4128 67.6405 69.1958 67.6571 68.9646L70.6467 68.8664C71.0161 68.8534 71.3738 68.7331 71.676 68.5203L75.2337 66.0252C75.3205 66.1263 75.4279 66.2076 75.5487 66.2636C75.6696 66.3197 75.801 66.3491 75.9342 66.3499H75.9683C76.1568 66.3428 76.339 66.2801 76.492 66.1697C76.6449 66.0593 76.7618 65.9061 76.828 65.7294C76.8942 65.5527 76.9067 65.3604 76.8639 65.1766C76.8211 64.9928 76.725 64.8258 76.5876 64.6965C76.4989 64.6072 76.3919 64.538 76.2739 64.4938C76.156 64.4495 76.0299 64.4312 75.9043 64.4402C75.7786 64.4441 75.655 64.4727 75.5404 64.5244C75.4258 64.5761 75.3225 64.6499 75.2364 64.7415C75.1503 64.8332 75.0832 64.9409 75.0387 65.0585C74.9943 65.1762 74.9735 65.3014 74.9775 65.4271C74.9854 65.5772 75.0278 65.7233 75.1013 65.8544L71.5436 68.3494C71.2775 68.5361 70.963 68.6415 70.6382 68.6528L67.6528 68.7425ZM67.2556 69.3833C67.1226 69.5234 66.9403 69.6061 66.7473 69.614H66.7217C66.5377 69.6036 66.3645 69.5239 66.2368 69.391C66.109 69.2581 66.0362 69.0818 66.033 68.8975C66.0298 68.7132 66.0963 68.5344 66.2193 68.3971C66.3423 68.2598 66.5126 68.1741 66.6961 68.1572H66.726C66.9093 68.1572 67.086 68.2257 67.2214 68.3494C67.3607 68.483 67.4433 68.665 67.4521 68.8578C67.4582 69.052 67.3876 69.2408 67.2556 69.3833ZM75.9171 64.6837H75.947C76.1312 64.6832 76.3086 64.7535 76.4424 64.8803C76.5125 64.9455 76.569 65.0239 76.6087 65.111C76.6483 65.1982 76.6704 65.2923 76.6736 65.388C76.6768 65.4837 76.661 65.579 76.6272 65.6686C76.5934 65.7582 76.5422 65.8402 76.4766 65.9099C76.4116 65.9804 76.3331 66.0371 76.2458 66.0767C76.1585 66.1163 76.0642 66.1381 75.9683 66.1406H75.9427C75.7587 66.1301 75.5855 66.0505 75.4578 65.9176C75.33 65.7847 75.2572 65.6084 75.254 65.4241C75.2507 65.2397 75.3173 65.061 75.4403 64.9237C75.5632 64.7864 75.7336 64.7007 75.9171 64.6837Z" fill="#6E807F"/>
<path d="M69.5194 72.0791L71.279 72.0193C71.3106 72.2436 71.4215 72.4492 71.5915 72.5989C71.7614 72.7485 71.9794 72.8324 72.2058 72.8353H72.2528C72.495 72.8157 72.7207 72.7047 72.884 72.5247C73.0474 72.3448 73.1361 72.1094 73.1323 71.8664C73.1285 71.6234 73.0324 71.3909 72.8635 71.2162C72.6946 71.0414 72.4656 70.9375 72.2229 70.9255H72.1887C72.0631 70.9292 71.9394 70.9579 71.825 71.01C71.7106 71.0621 71.6077 71.1365 71.5225 71.2289C71.3822 71.3884 71.2982 71.5895 71.2833 71.8014L69.5237 71.8569C69.0665 71.8759 68.6308 72.056 68.2936 72.3653L62.6773 77.5605C62.508 77.4095 62.2892 77.3259 62.0623 77.3255H62.0324C61.7787 77.3301 61.5371 77.4352 61.3609 77.6179C61.1847 77.8006 61.0883 78.0458 61.0928 78.2996C61.0973 78.5534 61.2025 78.7951 61.3851 78.9713C61.5677 79.1476 61.8129 79.2441 62.0666 79.2396H62.0965C62.3491 79.2295 62.5876 79.1203 62.7603 78.9356C62.933 78.7508 63.0259 78.5055 63.019 78.2526C63.0082 78.0629 62.9396 77.881 62.8225 77.7314L68.4346 72.5405C68.73 72.2628 69.1145 72.0993 69.5194 72.0791ZM62.0879 79.0131H62.0623C61.9664 79.0148 61.8711 78.9976 61.7818 78.9624C61.6926 78.9273 61.6111 78.8749 61.5421 78.8082C61.4731 78.7416 61.4179 78.662 61.3797 78.574C61.3414 78.486 61.3208 78.3913 61.3192 78.2954C61.3175 78.1994 61.3347 78.1041 61.3699 78.0148C61.405 77.9255 61.4574 77.844 61.524 77.775C61.5906 77.706 61.6702 77.6508 61.7582 77.6125C61.8461 77.5742 61.9408 77.5537 62.0367 77.552H62.0623C62.1582 77.5503 62.2535 77.5675 62.3428 77.6027C62.432 77.6378 62.5135 77.6902 62.5825 77.7569C62.6515 77.8235 62.7067 77.9031 62.745 77.9911C62.7832 78.0791 62.8038 78.1738 62.8055 78.2697C62.8071 78.3657 62.7899 78.461 62.7548 78.5503C62.7196 78.6396 62.6672 78.721 62.6006 78.7901C62.534 78.8591 62.4544 78.9143 62.3664 78.9526C62.2785 78.9909 62.1838 79.0114 62.0879 79.0131Z" fill="#6E807F"/>
<path d="M60.719 82.0341C60.788 82.2165 60.9106 82.3737 61.0707 82.4851C61.2308 82.5964 61.4209 82.6566 61.6159 82.6578C61.7219 82.6575 61.8271 82.6401 61.9277 82.6066C62.1058 82.5526 62.2646 82.4486 62.3855 82.3071C62.5064 82.1656 62.5842 81.9924 62.6097 81.808C62.6353 81.6236 62.6075 81.4358 62.5296 81.2667C62.4517 81.0976 62.327 80.9544 62.1703 80.8541C62.0136 80.7537 61.8314 80.7003 61.6454 80.7003C61.4593 80.7002 61.2771 80.7535 61.1203 80.8538C60.9636 80.9542 60.8389 81.0973 60.7609 81.2664C60.683 81.4354 60.6551 81.6232 60.6806 81.8076L59.6214 82.064C59.4227 82.1104 59.2143 82.0909 59.0277 82.0084L56.1448 80.6968C56.2132 80.5033 56.2132 80.2922 56.1448 80.0987C56.0563 79.8659 55.8806 79.6767 55.655 79.5714C55.4294 79.4661 55.1716 79.453 54.9365 79.5347C54.7013 79.6165 54.5073 79.7867 54.3955 80.0093C54.2838 80.2318 54.2633 80.4892 54.3382 80.7267C54.3788 80.8457 54.4429 80.9554 54.5265 81.0493C54.6101 81.1432 54.7116 81.2195 54.8251 81.2736C54.9579 81.339 55.1041 81.3726 55.2522 81.3718C55.3586 81.3722 55.4642 81.3533 55.5639 81.3163C55.7735 81.2373 55.9478 81.0857 56.0551 80.8891L58.9337 82.1964C59.0826 82.2642 59.2443 82.2992 59.4078 82.2989C59.4968 82.2977 59.5855 82.2877 59.6726 82.269L60.719 82.0341ZM60.9582 81.3847C61.0004 81.297 61.0601 81.2188 61.1335 81.1549C61.2069 81.091 61.2926 81.0427 61.3853 81.013C61.461 80.9878 61.5403 80.9748 61.6202 80.9745C61.754 80.9762 61.8849 81.0146 61.9984 81.0856C62.112 81.1566 62.2038 81.2575 62.2639 81.3772C62.324 81.4969 62.35 81.6308 62.3392 81.7643C62.3283 81.8978 62.281 82.0257 62.2023 82.1341C62.1237 82.2425 62.0168 82.3272 61.8933 82.3789C61.7698 82.4307 61.6344 82.4474 61.502 82.4274C61.3696 82.4074 61.2453 82.3513 61.1426 82.2654C61.0399 82.1794 60.9628 82.0669 60.9197 81.9401C60.8882 81.8499 60.8749 81.7543 60.8808 81.6589C60.8867 81.5635 60.9115 81.4703 60.9539 81.3847H60.9582ZM55.4871 81.0856C55.3965 81.1179 55.3004 81.1319 55.2043 81.1268C55.1083 81.1217 55.0142 81.0975 54.9276 81.0557C54.8404 81.0134 54.7629 80.9536 54.6997 80.8801C54.6365 80.8066 54.5891 80.721 54.5603 80.6285C54.5279 80.5378 54.5139 80.4417 54.5191 80.3456C54.5242 80.2495 54.5484 80.1554 54.5902 80.0688C54.6325 79.9816 54.6922 79.904 54.7657 79.8408C54.8391 79.7776 54.9248 79.7302 55.0173 79.7013C55.0936 79.6724 55.1748 79.6579 55.2564 79.6586C55.4279 79.6602 55.5933 79.7221 55.7237 79.8335C55.8542 79.9448 55.9413 80.0985 55.9698 80.2677C55.9983 80.4368 55.9664 80.6106 55.8797 80.7585C55.793 80.9065 55.6571 81.0193 55.4956 81.0771L55.4871 81.0856Z" fill="#6E807F"/>
<defs>
<filter id="filter0_d_388_634" x="0.402344" y="0.38208" width="145.002" height="145" filterUnits="userSpaceOnUse" color-interpolation-filters="sRGB">
<feFlood flood-opacity="0" result="BackgroundImageFix"/>
<feColorMatrix in="SourceAlpha" type="matrix" values="0 0 0 0 0 0 0 0 0 0 0 0 0 0 0 0 0 0 127 0" result="hardAlpha"/>
<feMorphology radius="8" operator="dilate" in="SourceAlpha" result="effect1_dropShadow_388_634"/>
<feOffset dy="4"/>
<feGaussianBlur stdDeviation="2"/>
<feComposite in2="hardAlpha" operator="out"/>
<feColorMatrix type="matrix" values="0 0 0 0 0 0 0 0 0 0 0 0 0 0 0 0 0 0 0.25 0"/>
<feBlend mode="normal" in2="BackgroundImageFix" result="effect1_dropShadow_388_634"/>
<feBlend mode="normal" in="SourceGraphic" in2="effect1_dropShadow_388_634" result="shape"/>
</filter>
</defs>
</svg>
